<svg width="208" height="60" viewBox="0 0 208 60" fill="none" xmlns="http://www.w3.org/2000/svg">
<path d="M43.6726 16.8979C43.6726 19.2653 43.1996 21.347 42.2538 23.1428C41.3081 24.898 40.0949 26.4286 38.6145 27.7347C37.134 29.0407 35.5919 30.1428 33.9881 31.0408C33.0012 31.5715 31.9113 32.1837 30.7188 32.8775C29.5673 33.5307 28.3336 34.102 27.0178 34.5918C25.7019 35.0816 24.2831 35.3265 22.7616 35.3265C22.3503 37.449 21.6924 39.4489 20.7876 41.3265C19.8829 43.1632 18.7109 44.796 17.2716 46.2245C16.9015 46.5918 16.4492 46.9795 15.9146 47.3877C15.4211 47.7551 14.8659 48.1021 14.2491 48.4285C15.1949 48.755 15.9968 49.0205 16.6548 49.2245C17.3539 49.4694 18.1969 49.7552 19.1839 50.0816C20.2942 50.449 21.24 50.8572 22.0213 51.3061C22.8027 51.755 23.5635 52.2041 24.3037 52.653C25.0439 53.1019 25.8663 53.4693 26.771 53.7551C27.6758 54.0409 28.8066 54.1836 30.1637 54.1836C31.4795 54.1836 32.7749 53.9796 34.0498 53.5714C35.3657 53.2041 36.4555 52.6121 37.3191 51.7959C38.2239 51.0203 38.6761 50.0001 38.6761 48.7347C38.6761 47.5511 38.2648 46.6939 37.4425 46.1632C36.6201 45.5919 35.6124 45.3061 34.4199 45.3061C33.5151 45.3061 32.7749 45.7143 32.1993 46.5306C31.6236 47.3062 31.2123 47.9796 30.9656 48.551C30.5543 49.4081 30.2049 49.8367 29.9169 49.8367C29.588 49.8367 29.4235 49.4897 29.4235 48.7959C29.4235 48.4285 29.4852 48.0203 29.6085 47.5714C29.7731 47.1225 29.9991 46.6939 30.2871 46.2857C30.7393 45.6325 31.274 45.1021 31.8909 44.6939C32.5077 44.2856 33.3508 44.0816 34.4199 44.0816C35.9415 44.0816 37.3191 44.5102 38.5528 45.3673C39.7865 46.1836 40.4033 47.3468 40.4033 48.8571C40.4033 50.3265 39.951 51.6122 39.0462 52.7143C38.1827 53.8163 37.0519 54.6734 35.6536 55.2857C34.2965 55.8979 32.8573 56.2041 31.3357 56.2041C29.4852 56.2041 28.0047 56.0407 26.8944 55.7143C25.7841 55.4285 24.7355 55.0408 23.7485 54.551C22.8027 54.1021 21.6101 53.653 20.1708 53.2041C19.1427 52.8776 17.9296 52.3469 16.5314 51.6122C15.1332 50.9184 13.8995 50.3674 12.8304 49.9592C12.707 49.8776 12.5631 49.7958 12.3986 49.7143C12.2752 49.6734 12.1313 49.6121 11.9668 49.5306C10.8153 50.0204 9.60221 50.4081 8.32739 50.6939C7.0937 51.0203 5.88056 51.1836 4.68801 51.1836C4.27677 51.1836 3.76274 51.0203 3.14589 50.6939C2.57018 50.4081 2.05613 50.0204 1.60378 49.5306C1.19255 49.0408 0.986938 48.5101 0.986938 47.9388C0.986938 47.5714 1.13087 47.1428 1.41873 46.653C1.74771 46.1223 2.13838 45.6734 2.59073 45.3061C3.08421 44.9388 3.55713 44.7551 4.00948 44.7551C4.9553 44.7551 6.0862 45 7.40212 45.4898C8.75918 45.9796 10.0134 46.5103 11.1649 47.0816C11.5761 46.6734 11.9668 46.2857 12.3369 45.9183C12.707 45.5101 13.0771 45.1224 13.4472 44.7551C14.6809 43.5306 15.7295 42.0815 16.5931 40.4081C17.4567 38.7348 18.2175 36.9796 18.8754 35.1428C16.9838 34.9795 15.1332 34.6734 13.3238 34.2245C11.5144 33.7347 9.8695 33.0612 8.38907 32.2041C6.94978 31.3469 5.77777 30.2858 4.87306 29.0204C4.00948 27.7143 3.57769 26.1632 3.57769 24.3673C3.57769 22.449 4.07116 20.653 5.05811 18.9796C6.0862 17.2653 7.42268 15.8775 9.0676 14.8163C10.7125 13.7551 12.4808 13.2245 14.3725 13.2245C16.7165 13.2245 18.5876 13.6326 19.9858 14.449C21.3839 15.2653 22.083 16.8367 22.083 19.1632C22.083 20.2653 21.7335 21.347 21.0344 22.4081C20.3764 23.4286 19.6979 24.1633 18.9988 24.6122C18.8343 24.6938 18.7315 24.7347 18.6904 24.7347C18.3203 24.7347 18.1352 24.5307 18.1352 24.1224C18.1352 23.8775 18.2175 23.6939 18.382 23.5714C18.8343 23.2041 19.3484 22.6121 19.9241 21.7959C20.5409 20.9796 20.8493 20.1019 20.8493 19.1632C20.8493 17.2449 20.253 15.9796 19.0605 15.3673C17.8679 14.7551 16.3052 14.449 14.3725 14.449C12.6864 14.449 11.2677 14.9388 10.1162 15.9183C8.96479 16.8979 8.1012 18.1632 7.52549 19.7143C6.94978 21.2245 6.66191 22.857 6.66191 24.6122C6.66191 26.7754 7.2582 28.5103 8.45076 29.8163C9.64332 31.1223 11.206 32.1019 13.1388 32.7551C15.0715 33.3673 17.1277 33.7756 19.3072 33.9796C19.5951 33.1633 19.8624 32.3674 20.1091 31.5918C20.3559 30.8162 20.6026 30.0409 20.8493 29.2653C21.7952 26.5305 22.6382 23.796 23.3784 21.0612C24.1597 18.2857 25.1468 15.7143 26.3393 13.3469C26.8739 12.2449 27.4908 11.1632 28.1898 10.102C28.93 8.99998 29.8141 8.08161 30.8422 7.34691C31.9113 6.61222 33.2274 6.24487 34.79 6.24487C35.6948 6.24487 36.5994 6.3061 37.5041 6.42855C38.4089 6.551 39.1284 6.81629 39.6631 7.22446C40.938 8.24488 41.9249 9.551 42.6239 11.1428C43.323 12.6938 43.6726 14.6122 43.6726 16.8979ZM39.3547 16.8979C39.5602 16.0816 39.7043 15.3469 39.7865 14.6939C39.9098 14.0408 39.9715 13.449 39.9715 12.9183C39.9715 11.3673 39.3135 10.0816 37.9976 9.0612C37.5863 8.73468 37.1545 8.551 36.7022 8.51018C36.2909 8.42855 35.7153 8.38773 34.9751 8.38773C32.8366 8.38773 31.2123 8.95915 30.102 10.102C29.0329 11.2041 28.1486 12.4694 27.4496 13.8979C26.2571 16.2653 25.3523 18.7959 24.7355 21.4898C24.1186 24.1428 23.6457 27.4082 23.3167 31.2857C23.2756 31.7755 23.2345 32.2653 23.1933 32.7551C23.1522 33.204 23.0905 33.6531 23.0083 34.102C24.4065 34.0611 25.7019 33.8162 26.8944 33.3673C28.0869 32.8775 29.2179 32.3062 30.2871 31.653C31.3562 30.9999 32.3638 30.4082 33.3096 29.8775C34.4199 29.2653 35.3247 28.4285 36.0237 27.3673C36.7639 26.2653 37.3191 25.0817 37.6892 23.8163C38.1005 22.5103 38.4294 21.2449 38.6761 20.0204C38.9229 18.7959 39.1491 17.7551 39.3547 16.8979ZM9.56108 48.3673C8.82086 48 8.0601 47.6735 7.27875 47.3877C6.49741 47.1019 5.7572 46.9592 5.05811 46.9592C4.60577 46.9592 4.17398 47.0816 3.76274 47.3265C3.39263 47.5714 3.20758 47.8775 3.20758 48.2449C3.20758 48.7756 3.3515 49.1836 3.63937 49.4694C3.92724 49.7958 4.27677 49.9592 4.68801 49.9592C5.67496 49.9592 6.55909 49.7958 7.34044 49.4694C8.16289 49.1836 8.9031 48.8162 9.56108 48.3673Z" fill="#353E40"/>
<mask id="mask0_6_12" style="mask-type:luminance" maskUnits="userSpaceOnUse" x="0" y="5" width="45" height="53">
<path d="M44.4128 5.38776H0.246735V57.0612H44.4128V5.38776Z" fill="white"/>
<path d="M43.6726 16.8979C43.6726 19.2653 43.1996 21.347 42.2538 23.1428C41.3081 24.898 40.0949 26.4286 38.6145 27.7347C37.134 29.0407 35.5919 30.1428 33.9881 31.0408C33.0012 31.5715 31.9113 32.1837 30.7188 32.8775C29.5673 33.5307 28.3336 34.102 27.0178 34.5918C25.7019 35.0816 24.2831 35.3265 22.7616 35.3265C22.3503 37.449 21.6924 39.4489 20.7876 41.3265C19.8829 43.1632 18.7109 44.796 17.2716 46.2245C16.9015 46.5918 16.4492 46.9795 15.9146 47.3877C15.4211 47.7551 14.8659 48.1021 14.2491 48.4285C15.1949 48.755 15.9968 49.0205 16.6548 49.2245C17.3539 49.4694 18.1969 49.7552 19.1839 50.0816C20.2942 50.449 21.24 50.8572 22.0213 51.3061C22.8027 51.755 23.5635 52.2041 24.3037 52.653C25.0439 53.1019 25.8663 53.4693 26.771 53.7551C27.6758 54.0409 28.8066 54.1836 30.1637 54.1836C31.4795 54.1836 32.7749 53.9796 34.0498 53.5714C35.3657 53.2041 36.4555 52.6121 37.3191 51.7959C38.2239 51.0203 38.6761 50.0001 38.6761 48.7347C38.6761 47.5511 38.2648 46.6939 37.4425 46.1632C36.6201 45.5919 35.6124 45.3061 34.4199 45.3061C33.5151 45.3061 32.7749 45.7143 32.1993 46.5306C31.6236 47.3062 31.2123 47.9796 30.9656 48.551C30.5543 49.4081 30.2049 49.8367 29.9169 49.8367C29.588 49.8367 29.4235 49.4897 29.4235 48.7959C29.4235 48.4285 29.4852 48.0203 29.6085 47.5714C29.7731 47.1225 29.9991 46.6939 30.2871 46.2857C30.7393 45.6325 31.274 45.1021 31.8909 44.6939C32.5077 44.2856 33.3508 44.0816 34.4199 44.0816C35.9415 44.0816 37.3191 44.5102 38.5528 45.3673C39.7865 46.1836 40.4033 47.3468 40.4033 48.8571C40.4033 50.3265 39.951 51.6122 39.0462 52.7143C38.1827 53.8163 37.0519 54.6734 35.6536 55.2857C34.2965 55.8979 32.8573 56.2041 31.3357 56.2041C29.4852 56.2041 28.0047 56.0407 26.8944 55.7143C25.7841 55.4285 24.7355 55.0408 23.7485 54.551C22.8027 54.1021 21.6101 53.653 20.1708 53.2041C19.1427 52.8776 17.9296 52.3469 16.5314 51.6122C15.1332 50.9184 13.8995 50.3674 12.8304 49.9592C12.707 49.8776 12.5631 49.7958 12.3986 49.7143C12.2752 49.6734 12.1313 49.6121 11.9668 49.5306C10.8153 50.0204 9.60221 50.4081 8.32739 50.6939C7.0937 51.0203 5.88056 51.1836 4.68801 51.1836C4.27677 51.1836 3.76274 51.0203 3.14589 50.6939C2.57018 50.4081 2.05613 50.0204 1.60378 49.5306C1.19255 49.0408 0.986938 48.5101 0.986938 47.9388C0.986938 47.5714 1.13087 47.1428 1.41873 46.653C1.74771 46.1223 2.13838 45.6734 2.59073 45.3061C3.08421 44.9388 3.55713 44.7551 4.00948 44.7551C4.9553 44.7551 6.0862 45 7.40212 45.4898C8.75918 45.9796 10.0134 46.5103 11.1649 47.0816C11.5761 46.6734 11.9668 46.2857 12.3369 45.9183C12.707 45.5101 13.0771 45.1224 13.4472 44.7551C14.6809 43.5306 15.7295 42.0815 16.5931 40.4081C17.4567 38.7348 18.2175 36.9796 18.8754 35.1428C16.9838 34.9795 15.1332 34.6734 13.3238 34.2245C11.5144 33.7347 9.8695 33.0612 8.38907 32.2041C6.94978 31.3469 5.77777 30.2858 4.87306 29.0204C4.00948 27.7143 3.57769 26.1632 3.57769 24.3673C3.57769 22.449 4.07116 20.653 5.05811 18.9796C6.0862 17.2653 7.42268 15.8775 9.0676 14.8163C10.7125 13.7551 12.4808 13.2245 14.3725 13.2245C16.7165 13.2245 18.5876 13.6326 19.9858 14.449C21.3839 15.2653 22.083 16.8367 22.083 19.1632C22.083 20.2653 21.7335 21.347 21.0344 22.4081C20.3764 23.4286 19.6979 24.1633 18.9988 24.6122C18.8343 24.6938 18.7315 24.7347 18.6904 24.7347C18.3203 24.7347 18.1352 24.5307 18.1352 24.1224C18.1352 23.8775 18.2175 23.6939 18.382 23.5714C18.8343 23.2041 19.3484 22.6121 19.9241 21.7959C20.5409 20.9796 20.8493 20.1019 20.8493 19.1632C20.8493 17.2449 20.253 15.9796 19.0605 15.3673C17.8679 14.7551 16.3052 14.449 14.3725 14.449C12.6864 14.449 11.2677 14.9388 10.1162 15.9183C8.96479 16.8979 8.1012 18.1632 7.52549 19.7143C6.94978 21.2245 6.66191 22.857 6.66191 24.6122C6.66191 26.7754 7.2582 28.5103 8.45076 29.8163C9.64332 31.1223 11.206 32.1019 13.1388 32.7551C15.0715 33.3673 17.1277 33.7756 19.3072 33.9796C19.5951 33.1633 19.8624 32.3674 20.1091 31.5918C20.3559 30.8162 20.6026 30.0409 20.8493 29.2653C21.7952 26.5305 22.6382 23.796 23.3784 21.0612C24.1597 18.2857 25.1468 15.7143 26.3393 13.3469C26.8739 12.2449 27.4908 11.1632 28.1898 10.102C28.93 8.99998 29.8141 8.08161 30.8422 7.34691C31.9113 6.61222 33.2274 6.24487 34.79 6.24487C35.6948 6.24487 36.5994 6.3061 37.5041 6.42855C38.4089 6.551 39.1284 6.81629 39.6631 7.22446C40.938 8.24488 41.9249 9.551 42.6239 11.1428C43.323 12.6938 43.6726 14.6122 43.6726 16.8979ZM39.3547 16.8979C39.5602 16.0816 39.7043 15.3469 39.7865 14.6939C39.9098 14.0408 39.9715 13.449 39.9715 12.9183C39.9715 11.3673 39.3135 10.0816 37.9976 9.0612C37.5863 8.73468 37.1545 8.551 36.7022 8.51018C36.2909 8.42855 35.7153 8.38773 34.9751 8.38773C32.8366 8.38773 31.2123 8.95915 30.102 10.102C29.0329 11.2041 28.1486 12.4694 27.4496 13.8979C26.2571 16.2653 25.3523 18.7959 24.7355 21.4898C24.1186 24.1428 23.6457 27.4082 23.3167 31.2857C23.2756 31.7755 23.2345 32.2653 23.1933 32.7551C23.1522 33.204 23.0905 33.6531 23.0083 34.102C24.4065 34.0611 25.7019 33.8162 26.8944 33.3673C28.0869 32.8775 29.2179 32.3062 30.2871 31.653C31.3562 30.9999 32.3638 30.4082 33.3096 29.8775C34.4199 29.2653 35.3247 28.4285 36.0237 27.3673C36.7639 26.2653 37.3191 25.0817 37.6892 23.8163C38.1005 22.5103 38.4294 21.2449 38.6761 20.0204C38.9229 18.7959 39.1491 17.7551 39.3547 16.8979ZM9.56108 48.3673C8.82086 48 8.0601 47.6735 7.27875 47.3877C6.49741 47.1019 5.7572 46.9592 5.05811 46.9592C4.60577 46.9592 4.17398 47.0816 3.76274 47.3265C3.39263 47.5714 3.20758 47.8775 3.20758 48.2449C3.20758 48.7756 3.3515 49.1836 3.63937 49.4694C3.92724 49.7958 4.27677 49.9592 4.68801 49.9592C5.67496 49.9592 6.55909 49.7958 7.34044 49.4694C8.16289 49.1836 8.9031 48.8162 9.56108 48.3673Z" fill="black"/>
</mask>
<g mask="url(#mask0_6_12)">
<path d="M42.2539 23.1428L42.9065 23.4894L42.9082 23.4862L42.9099 23.4833L42.2539 23.1428ZM33.9881 31.0408L34.3407 31.6868L34.3464 31.6839L34.3518 31.6807L33.9881 31.0408ZM30.7189 32.8775L31.086 33.5155L31.0897 33.5133L31.0932 33.5113L30.7189 32.8775ZM22.7616 35.3265V34.5918H22.1501L22.0347 35.1877L22.7616 35.3265ZM20.7877 41.3265L21.4527 41.6493L21.454 41.6464L21.4554 41.6434L20.7877 41.3265ZM15.9146 47.3877L16.3587 47.9755L16.3623 47.9728L16.3659 47.9701L15.9146 47.3877ZM14.2491 48.4286L13.9008 47.7803L12.4077 48.5706L14.0059 49.1224L14.2491 48.4286ZM16.6548 49.2245L16.9012 48.5317L16.8885 48.5273L16.8756 48.5233L16.6548 49.2245ZM34.0498 53.5714L33.8495 52.8641L33.8359 52.8678L33.8226 52.8722L34.0498 53.5714ZM37.3191 51.7959L36.8352 51.24L36.8217 51.2515L36.8086 51.264L37.3191 51.7959ZM37.4425 46.1633L37.0181 46.7652L37.0284 46.7723L37.039 46.7792L37.4425 46.1633ZM32.1993 46.5306L32.7952 46.9665L32.8006 46.9592L32.8058 46.9518L32.1993 46.5306ZM30.9656 48.551L31.634 48.8669L31.6402 48.8537L31.6459 48.8405L30.9656 48.551ZM29.6085 47.5714L28.913 47.3204L28.9024 47.3488L28.8945 47.3782L29.6085 47.5714ZM30.2871 46.2857L30.8935 46.7069L30.8953 46.7045L30.897 46.702L30.2871 46.2857ZM38.5528 45.3673L38.1284 45.9693L38.1353 45.9739L38.1422 45.9786L38.5528 45.3673ZM39.0463 52.7143L38.4723 52.2502L38.4672 52.2566L38.462 52.2632L39.0463 52.7143ZM35.6536 55.2857L35.3548 54.6135L35.3511 54.6152L35.3474 54.6169L35.6536 55.2857ZM26.8944 55.7143L27.1046 55.0099L27.0926 55.0063L27.0802 55.0031L26.8944 55.7143ZM23.7485 54.551L24.0795 53.8939L24.0737 53.891L24.0679 53.8883L23.7485 54.551ZM20.1708 53.2041L19.9452 53.9037L19.947 53.9045L19.9489 53.905L20.1708 53.2041ZM16.5314 51.6122L16.8778 50.963L16.8702 50.9588L16.8625 50.9552L16.5314 51.6122ZM12.8304 49.9592L12.4198 50.5704L12.488 50.6157L12.5647 50.6449L12.8304 49.9592ZM12.3986 49.7143L12.7296 49.0572L12.6825 49.0337L12.6327 49.0173L12.3986 49.7143ZM11.9668 49.5306L12.2978 48.8735L11.9907 48.721L11.6752 48.8554L11.9668 49.5306ZM8.3274 50.6939L8.16435 49.9773L8.15044 49.9802L8.13667 49.9839L8.3274 50.6939ZM3.1459 50.6939L3.49425 50.0456L3.48564 50.041L3.47693 50.0368L3.1459 50.6939ZM1.60379 49.5306L1.03515 50.001L1.04633 50.0143L1.05814 50.027L1.60379 49.5306ZM1.41874 46.653L0.788332 46.2681L0.783757 46.2754L0.779358 46.2828L1.41874 46.653ZM2.59074 45.3061L2.14662 44.7184L2.13411 44.7277L2.12201 44.7375L2.59074 45.3061ZM7.40213 45.4898L7.14222 46.1777L7.1457 46.1789L7.14918 46.1802L7.40213 45.4898ZM11.1649 47.0816L10.8339 47.7387L11.3111 47.9755L11.6883 47.601L11.1649 47.0816ZM12.3369 45.9184L12.8603 46.4378L12.8741 46.4243L12.8871 46.4099L12.3369 45.9184ZM18.8754 35.1428L19.5729 35.389L19.8938 34.4934L18.9396 34.4108L18.8754 35.1428ZM13.3238 34.2245L13.1291 34.9332L13.1367 34.9354L13.1443 34.9371L13.3238 34.2245ZM8.38908 32.2041L8.00824 32.8339L8.01217 32.8364L8.01611 32.8386L8.38908 32.2041ZM4.87307 29.0204L4.25423 29.4235L4.2616 29.4348L4.26942 29.4455L4.87307 29.0204ZM5.05812 18.9796L4.42206 18.6038L4.42068 18.6061L4.41932 18.6084L5.05812 18.9796ZM21.0344 22.4082L20.4149 22.006L20.4129 22.009L20.4109 22.0122L21.0344 22.4082ZM18.9988 24.6122L19.3298 25.2693L19.3665 25.2512L19.4009 25.2291L18.9988 24.6122ZM18.382 23.5714L18.8261 24.1592L18.8386 24.1499L18.8507 24.1401L18.382 23.5714ZM19.9241 21.7959L19.3319 21.3551L19.3246 21.3646L19.3177 21.3747L19.9241 21.7959ZM7.5255 19.7143L8.21782 19.9744L8.21896 19.9712L8.22007 19.9682L7.5255 19.7143ZM13.1388 32.7551L12.9002 33.4506L12.907 33.4528L12.9137 33.455L13.1388 32.7551ZM19.3072 33.9796L19.2377 34.7111L19.8145 34.765L20.0059 34.2223L19.3072 33.9796ZM20.8493 29.2653L20.1492 29.0268L20.1463 29.0353L20.1435 29.0442L20.8493 29.2653ZM23.3784 21.0612L22.6655 20.8636L22.6645 20.867L22.6635 20.8707L23.3784 21.0612ZM26.3393 13.3469L27.0013 13.6755L27.0037 13.6706L27.0062 13.6656L26.3393 13.3469ZM28.1898 10.102L27.5739 9.69449L27.572 9.69721L27.5702 9.69996L28.1898 10.102ZM30.8422 7.34693L30.4208 6.74286L30.4154 6.74673L30.4097 6.7507L30.8422 7.34693ZM39.6631 7.22448L40.1277 6.65257L40.1211 6.64728L40.1144 6.64214L39.6631 7.22448ZM42.624 11.1428L41.9454 11.4364L41.9469 11.4396L41.9484 11.4429L42.624 11.1428ZM39.3547 16.8979L38.6367 16.7198L38.6354 16.7238L38.6347 16.7278L39.3547 16.8979ZM39.7865 14.6939L39.0588 14.5585L39.0549 14.5805L39.0519 14.6027L39.7865 14.6939ZM37.9976 9.06121L37.5352 9.63491L37.5384 9.63756L37.5419 9.64018L37.9976 9.06121ZM36.7023 8.51019L36.5572 9.23061L36.5959 9.23832L36.6351 9.24187L36.7023 8.51019ZM30.102 10.102L29.5691 9.59205L29.5688 9.59242L30.102 10.102ZM27.4496 13.8979L28.1116 14.2265L28.1136 14.2227L28.1155 14.2189L27.4496 13.8979ZM24.7355 21.4898L25.4567 21.6551L25.4572 21.6526L24.7355 21.4898ZM23.3167 31.2857L22.5791 31.224L22.5791 31.2247L23.3167 31.2857ZM23.1934 32.7551L23.9305 32.8217L23.9308 32.8188L23.931 32.8161L23.1934 32.7551ZM23.0083 34.102L22.28 33.9705L22.1165 34.8632L23.0301 34.8365L23.0083 34.102ZM26.8944 33.3673L27.157 34.0543L27.1673 34.0504L27.1774 34.0462L26.8944 33.3673ZM33.3096 29.8775L32.9501 29.2354L32.9476 29.2366L32.9454 29.2379L33.3096 29.8775ZM36.0237 27.3673L35.4079 26.9598L35.4059 26.9625L35.4042 26.9652L36.0237 27.3673ZM37.6892 23.8163L36.9828 23.5971L36.9803 23.6042L36.9784 23.6116L37.6892 23.8163ZM9.56109 48.3673L9.98044 48.9727L11.0144 48.2672L9.89211 47.7103L9.56109 48.3673ZM3.76275 47.3265L3.38191 46.6966L3.36681 46.7055L3.35215 46.7153L3.76275 47.3265ZM3.63938 49.4694L4.19644 48.9855L4.18023 48.9671L4.16278 48.9499L3.63938 49.4694ZM7.34045 49.4694L7.09591 48.7758L7.07432 48.7834L7.0532 48.7922L7.34045 49.4694ZM42.9324 16.8979C42.9324 19.1667 42.4799 21.1281 41.5978 22.8024L42.9099 23.4833C43.9196 21.5659 44.4128 19.3639 44.4128 16.8979H42.9324ZM41.6012 22.7963C40.6959 24.4761 39.537 25.9379 38.1227 27.1856L39.1062 28.2837C40.6528 26.9194 41.92 25.32 42.9065 23.4894L41.6012 22.7963ZM38.1227 27.1856C36.6786 28.4596 35.1791 29.5305 33.6244 30.4009L34.3518 31.6807C36.0047 30.7553 37.5895 29.6221 39.1062 28.2837L38.1227 27.1856ZM33.6355 30.3948C32.64 30.9301 31.5427 31.5465 30.3446 32.2437L31.0932 33.5113C32.2802 32.8207 33.3624 32.2126 34.3407 31.6868L33.6355 30.3948ZM30.3517 32.2396C29.2365 32.8722 28.039 33.4271 26.758 33.9039L27.2776 35.2797C28.6285 34.777 29.8982 34.1892 31.086 33.5155L30.3517 32.2396ZM26.758 33.9039C25.5317 34.3604 24.2017 34.5918 22.7616 34.5918V36.0612C24.3645 36.0612 25.8719 35.8028 27.2776 35.2797L26.758 33.9039ZM22.0347 35.1877C21.6349 37.2509 20.9963 39.1908 20.1199 41.0096L21.4554 41.6434C22.3885 39.7073 23.0657 37.6469 23.4885 35.4654L22.0347 35.1877ZM20.1227 41.0037C19.2534 42.7685 18.129 44.3346 16.7482 45.705L17.7951 46.7439C19.2929 45.2574 20.5125 43.558 21.4527 41.6493L20.1227 41.0037ZM16.7482 45.705C16.4061 46.0445 15.9793 46.4113 15.4633 46.8054L16.3659 47.9701C16.9191 47.5477 17.3969 47.1392 17.7951 46.7439L16.7482 45.705ZM15.4705 46.8C15.011 47.1421 14.4885 47.4693 13.9008 47.7803L14.5975 49.0768C15.2434 48.7349 15.8312 48.3681 16.3587 47.9755L15.4705 46.8ZM14.0059 49.1224C14.9562 49.4505 15.766 49.7184 16.434 49.9256L16.8756 48.5233C16.2276 48.3223 15.4337 48.0597 14.4923 47.7348L14.0059 49.1224ZM16.4084 49.9173C17.1129 50.1641 17.9602 50.4512 18.9498 50.7786L19.4179 49.3846C18.4336 49.0589 17.5949 48.7746 16.9012 48.5317L16.4084 49.9173ZM18.9498 50.7786C20.0257 51.1347 20.9231 51.5241 21.6505 51.9419L22.3922 50.6704C21.5569 50.1904 20.5627 49.7633 19.4179 49.3846L18.9498 50.7786ZM21.6505 51.9419C22.4269 52.3881 23.1827 52.834 23.9177 53.28L24.6896 52.0261C23.9443 51.574 23.1784 51.1219 22.3922 50.6704L21.6505 51.9419ZM23.9177 53.28C24.713 53.7624 25.5907 54.1533 26.5465 54.4553L26.9956 53.0549C26.1421 52.7855 25.3748 52.4417 24.6896 52.0261L23.9177 53.28ZM26.5465 54.4553C27.5478 54.7714 28.7603 54.9184 30.1637 54.9184V53.449C28.853 53.449 27.8039 53.3104 26.9956 53.0549L26.5465 54.4553ZM30.1637 54.9184C31.5583 54.9184 32.9301 54.7019 34.2771 54.2706L33.8226 52.8722C32.62 53.2572 31.4011 53.449 30.1637 53.449V54.9184ZM34.2502 54.2787C35.6652 53.8837 36.8666 53.2384 37.8296 52.3278L36.8086 51.264C36.0444 51.9862 35.0664 52.5245 33.8495 52.8641L34.2502 54.2787ZM37.8029 52.3518C38.8824 51.4266 39.4164 50.1975 39.4164 48.7347H37.9359C37.9359 49.8027 37.5653 50.614 36.8352 51.24L37.8029 52.3518ZM39.4164 48.7347C39.4164 47.364 38.9256 46.2438 37.8459 45.5473L37.039 46.7792C37.6041 47.1438 37.9359 47.7379 37.9359 48.7347H39.4164ZM37.8669 45.5613C36.8982 44.8883 35.735 44.5714 34.4199 44.5714V46.0408C35.4898 46.0408 36.342 46.2955 37.0181 46.7652L37.8669 45.5613ZM34.4199 44.5714C33.2445 44.5714 32.2893 45.1217 31.5928 46.1094L32.8058 46.9518C33.2605 46.3068 33.7861 46.0408 34.4199 46.0408V44.5714ZM31.6034 46.0947C31.0103 46.8938 30.5632 47.6182 30.2853 48.2615L31.6459 48.8405C31.8615 48.3409 32.237 47.7184 32.7952 46.9665L31.6034 46.0947ZM30.2972 48.2351C30.1015 48.6431 29.9406 48.9046 29.8197 49.053C29.7598 49.1265 29.7285 49.1488 29.7292 49.1481C29.7317 49.1466 29.7985 49.102 29.917 49.102V50.5714C30.422 50.5714 30.7744 50.218 30.9703 49.9775C31.1988 49.6974 31.4184 49.3161 31.634 48.8669L30.2972 48.2351ZM29.917 49.102C29.9737 49.102 30.0544 49.1197 30.1289 49.1721C30.1965 49.2196 30.2182 49.2668 30.2165 49.2637C30.2143 49.2585 30.199 49.2223 30.1857 49.1373C30.1726 49.0545 30.1637 48.9424 30.1637 48.7959H28.6833C28.6833 49.1772 28.7247 49.5681 28.8772 49.8894C28.9579 50.0596 29.0822 50.2369 29.2732 50.3711C29.4711 50.5102 29.6956 50.5714 29.917 50.5714V49.102ZM30.1637 48.7959C30.1637 48.5086 30.2123 48.1665 30.3226 47.7646L28.8945 47.3782C28.758 47.8741 28.6833 48.3485 28.6833 48.7959H30.1637ZM30.3041 47.8224C30.4457 47.4365 30.6411 47.0647 30.8935 46.7069L29.6806 45.8645C29.3574 46.3229 29.1005 46.8086 28.913 47.3204L30.3041 47.8224ZM30.897 46.702C31.3002 46.1199 31.7687 45.6575 32.3014 45.3051L31.4803 44.0826C30.7793 44.5464 30.1787 45.1455 29.6771 45.8694L30.897 46.702ZM32.3014 45.3051C32.754 45.0056 33.4352 44.8163 34.4199 44.8163V43.3469C33.2662 43.3469 32.2615 43.5656 31.4803 44.0826L32.3014 45.3051ZM34.4199 44.8163C35.7913 44.8163 37.0203 45.1996 38.1284 45.9693L38.9772 44.7654C37.6179 43.8208 36.0916 43.3469 34.4199 43.3469V44.8163ZM38.1422 45.9786C39.1635 46.6545 39.6631 47.5849 39.6631 48.8571H41.1435C41.1435 47.109 40.4095 45.7129 38.9634 44.7561L38.1422 45.9786ZM39.6631 48.8571C39.6631 50.1637 39.2656 51.2838 38.4723 52.2502L39.6202 53.1784C40.6362 51.9406 41.1435 50.4894 41.1435 48.8571H39.6631ZM38.462 52.2632C37.6801 53.2611 36.6507 54.046 35.3548 54.6135L35.9524 55.9579C37.4528 55.3009 38.6853 54.3715 39.6305 53.1654L38.462 52.2632ZM35.3474 54.6169C34.0886 55.1848 32.754 55.4694 31.3357 55.4694V56.9388C32.9607 56.9388 34.5046 56.6111 35.9598 55.9545L35.3474 54.6169ZM31.3357 55.4694C29.5192 55.4694 28.1185 55.308 27.1046 55.0099L26.6842 56.4186C27.891 56.7737 29.4511 56.9388 31.3357 56.9388V55.4694ZM27.0802 55.0031C26.018 54.7298 25.0182 54.3597 24.0795 53.8939L23.4175 55.2081C24.4526 55.7219 25.5502 56.1274 26.7086 56.4255L27.0802 55.0031ZM24.0679 53.8883C23.0802 53.4193 21.8523 52.9584 20.3928 52.5032L19.9489 53.905C21.368 54.3477 22.5252 54.7846 23.4291 55.2137L24.0679 53.8883ZM20.3964 52.5044C19.4243 52.1956 18.2534 51.6857 16.8778 50.963L16.1851 52.2615C17.6059 53.0081 18.8611 53.5594 19.9452 53.9037L20.3964 52.5044ZM16.8625 50.9552C15.4501 50.2543 14.1938 49.6925 13.0961 49.2735L12.5647 50.6449C13.6053 51.0421 14.8164 51.5826 16.2004 52.2693L16.8625 50.9552ZM13.241 49.3479C13.0868 49.2458 12.9153 49.1493 12.7296 49.0572L12.0676 50.3713C12.2108 50.4426 12.3271 50.5092 12.4198 50.5704L13.241 49.3479ZM12.6327 49.0173C12.553 48.9908 12.4427 48.9453 12.2978 48.8735L11.6358 50.1877C11.8198 50.279 11.9974 50.3559 12.1645 50.4113L12.6327 49.0173ZM11.6752 48.8554C10.567 49.3266 9.39703 49.701 8.16435 49.9773L8.49044 51.4104C9.80738 51.1153 11.0637 50.7142 12.2584 50.2058L11.6752 48.8554ZM8.13667 49.9839C6.96084 50.2952 5.81181 50.449 4.68802 50.449V51.9184C5.94934 51.9184 7.2266 51.7457 8.51813 51.4038L8.13667 49.9839ZM4.68802 50.449C4.45556 50.449 4.06944 50.35 3.49425 50.0456L2.79756 51.3421C3.45605 51.6906 4.09802 51.9184 4.68802 51.9184V50.449ZM3.47693 50.0368C2.98525 49.7926 2.54322 49.4606 2.14944 49.0342L1.05814 50.027C1.56907 50.5802 2.15511 51.0235 2.81488 51.3509L3.47693 50.0368ZM2.17244 49.0601C1.8584 48.6862 1.72716 48.3184 1.72716 47.9388H0.246735C0.246735 48.7021 0.52673 49.3954 1.03515 50.001L2.17244 49.0601ZM1.72716 47.9388C1.72716 47.7539 1.80341 47.4566 2.05812 47.0233L0.779358 46.2828C0.458349 46.8291 0.246735 47.389 0.246735 47.9388H1.72716ZM2.04915 47.038C2.33812 46.572 2.6755 46.1865 3.05947 45.8748L2.12201 44.7375C1.60128 45.1604 1.15733 45.673 0.788332 46.2681L2.04915 47.038ZM3.03487 45.8939C3.44611 45.5877 3.76647 45.4898 4.00949 45.4898V44.0204C3.34779 44.0204 2.72233 44.2898 2.14662 44.7184L3.03487 45.8939ZM4.00949 45.4898C4.8345 45.4898 5.87288 45.7053 7.14222 46.1777L7.66205 44.8019C6.29951 44.2947 5.07613 44.0204 4.00949 44.0204V45.4898ZM7.14918 46.1802C8.48274 46.6616 9.71059 47.1813 10.8339 47.7387L11.4959 46.4246C10.3163 45.839 9.03564 45.2975 7.65509 44.7994L7.14918 46.1802ZM11.6883 47.601C12.0995 47.193 12.4902 46.8051 12.8603 46.4378L11.8135 45.3989C11.4434 45.7663 11.0527 46.1539 10.6415 46.5622L11.6883 47.601ZM12.8871 46.4099C13.249 46.0107 13.6102 45.6323 13.9706 45.2745L12.9238 44.2357C12.544 44.6126 12.165 45.0098 11.7867 45.4268L12.8871 46.4099ZM13.9706 45.2745C15.2633 43.9915 16.3562 42.4788 17.2519 40.7432L15.9343 40.0731C15.1029 41.6843 14.0985 43.0697 12.9238 44.2357L13.9706 45.2745ZM17.2519 40.7432C18.1309 39.0399 18.9044 37.2551 19.5729 35.389L18.178 34.8967C17.5305 36.7041 16.7825 38.4296 15.9343 40.0731L17.2519 40.7432ZM18.9396 34.4108C17.0861 34.2509 15.2742 33.9512 13.5034 33.5118L13.1443 34.9371C14.9923 35.3958 16.8815 35.7083 18.8113 35.8748L18.9396 34.4108ZM13.5186 33.5157C11.7658 33.0411 10.1816 32.3914 8.76205 31.5695L8.01611 32.8386C9.55741 33.731 11.2631 34.4282 13.1291 34.9332L13.5186 33.5157ZM8.76992 31.5742C7.41178 30.7653 6.31794 29.7717 5.47671 28.5953L4.26942 29.4455C5.2376 30.7996 6.48777 31.9286 8.00824 32.8339L8.76992 31.5742ZM5.49191 28.6173C4.71886 27.4482 4.31791 26.0419 4.31791 24.3673H2.83748C2.83748 26.2844 3.30012 27.9806 4.25423 29.4235L5.49191 28.6173ZM4.31791 24.3673C4.31791 22.5808 4.77563 20.9128 5.69693 19.3507L4.41932 18.6084C3.36671 20.3931 2.83748 22.317 2.83748 24.3673H4.31791ZM5.69419 19.3554C6.66574 17.7353 7.92354 16.4307 9.47103 15.4323L8.6642 14.2003C6.92183 15.3244 5.50667 16.7953 4.42206 18.6038L5.69419 19.3554ZM9.47103 15.4323C11.0006 14.4455 12.6295 13.9592 14.3725 13.9592V12.4898C12.3321 12.4898 10.4245 13.0647 8.6642 14.2003L9.47103 15.4323ZM14.3725 13.9592C16.6397 13.9592 18.3657 14.3555 19.6104 15.0822L20.3611 13.8157C18.8095 12.9098 16.7932 12.4898 14.3725 12.4898V13.9592ZM19.6104 15.0822C20.6903 15.7127 21.3428 16.9696 21.3428 19.1633H22.8232C22.8232 16.7038 22.0776 14.8179 20.3611 13.8157L19.6104 15.0822ZM21.3428 19.1633C21.3428 20.1019 21.0474 21.046 20.4149 22.006L21.6539 22.8103C22.4196 21.648 22.8232 20.4286 22.8232 19.1633H21.3428ZM20.4109 22.0122C19.7856 22.9819 19.1755 23.6236 18.5967 23.9953L19.4009 25.2291C20.2203 24.7028 20.9673 23.8753 21.6579 22.8042L20.4109 22.0122ZM18.6678 23.9552C18.6319 23.9728 18.6018 23.9873 18.5768 23.9988C18.5515 24.0103 18.5341 24.0176 18.5234 24.022C18.5183 24.024 18.516 24.0247 18.5163 24.0247C18.5164 24.0247 18.5211 24.023 18.5294 24.0206C18.5373 24.0184 18.5536 24.0139 18.5763 24.01C18.588 24.0078 18.6032 24.0054 18.6213 24.0037C18.6393 24.0017 18.6627 24 18.6904 24V25.4694C18.8041 25.4694 18.8967 25.4446 18.9361 25.4334C18.9869 25.4192 19.0341 25.4018 19.0733 25.3861C19.152 25.355 19.2395 25.3141 19.3298 25.2693L18.6678 23.9552ZM18.6904 24C18.6645 24 18.674 23.9963 18.7046 24.0076C18.7395 24.0203 18.7847 24.0465 18.8242 24.0901C18.9018 24.1756 18.8754 24.2312 18.8754 24.1224H17.395C17.395 24.4217 17.4612 24.7834 17.7238 25.0731C17.9998 25.3775 18.3699 25.4694 18.6904 25.4694V24ZM18.8754 24.1224C18.8754 24.0808 18.8824 24.0791 18.8733 24.0994C18.8688 24.1095 18.8618 24.1217 18.852 24.1337C18.8423 24.1457 18.8328 24.1543 18.8261 24.1592L17.9378 22.9837C17.5487 23.2734 17.395 23.6983 17.395 24.1224H18.8754ZM18.8507 24.1401C19.3799 23.7103 19.9394 23.0552 20.5305 22.2171L19.3177 21.3747C18.7573 22.1691 18.2887 22.6979 17.9132 23.0028L18.8507 24.1401ZM20.5162 22.2367C21.2203 21.3049 21.5896 20.2751 21.5896 19.1633H20.1091C20.1091 19.929 19.8615 20.6542 19.3319 21.3551L20.5162 22.2367ZM21.5896 19.1633C21.5896 17.1065 20.9407 15.5055 19.4006 14.7148L18.7204 16.0199C19.5654 16.4537 20.1091 17.3833 20.1091 19.1633H21.5896ZM19.4006 14.7148C18.0669 14.0301 16.3751 13.7143 14.3725 13.7143V15.1837C16.2354 15.1837 17.6689 15.4801 18.7204 16.0199L19.4006 14.7148ZM14.3725 13.7143C12.5309 13.7143 10.9353 14.2539 9.63452 15.3605L10.598 16.4762C11.6 15.6237 12.842 15.1837 14.3725 15.1837V13.7143ZM9.63452 15.3605C8.37798 16.4296 7.44593 17.8035 6.83093 19.4603L8.22007 19.9682C8.75652 18.5231 9.55164 17.3663 10.598 16.4762L9.63452 15.3605ZM6.83318 19.4543C6.22314 21.0546 5.9217 22.776 5.9217 24.6122H7.40213C7.40213 22.9381 7.67641 21.3945 8.21782 19.9744L6.83318 19.4543ZM5.9217 24.6122C5.9217 26.9145 6.55982 28.8394 7.90227 30.3098L8.99927 29.3228C7.95658 28.1809 7.40213 26.6366 7.40213 24.6122H5.9217ZM7.90227 30.3098C9.1911 31.7211 10.8665 32.7634 12.9002 33.4506L13.3773 32.0596C11.5455 31.4407 10.0956 30.5236 8.99927 29.3228L7.90227 30.3098ZM12.9137 33.455C14.9009 34.0844 17.0095 34.5024 19.2377 34.7111L19.3768 33.2481C17.2459 33.0487 15.2423 32.6503 13.3638 32.0552L12.9137 33.455ZM20.0059 34.2223C20.2961 33.3992 20.5658 32.5962 20.815 31.813L19.4033 31.3707C19.159 32.1384 18.8941 32.9273 18.6086 33.7369L20.0059 34.2223ZM20.815 31.813C21.0617 31.0376 21.3085 30.262 21.5552 29.4864L20.1435 29.0442C19.8968 29.8195 19.65 30.5951 19.4033 31.3707L20.815 31.813ZM21.5495 29.5038C22.5006 26.7536 23.3486 24.0029 24.0933 21.2517L22.6635 20.8707C21.9278 23.5888 21.0897 26.3074 20.1492 29.0268L21.5495 29.5038ZM24.0913 21.2588C24.8611 18.5246 25.8317 15.9974 27.0013 13.6755L25.6773 13.0183C24.4618 15.4311 23.4584 18.0468 22.6655 20.8636L24.0913 21.2588ZM27.0062 13.6656C27.5263 12.5934 28.1271 11.5396 28.8094 10.5041L27.5702 9.69996C26.8542 10.7869 26.2213 11.8964 25.6723 13.0282L27.0062 13.6656ZM28.8057 10.5096C29.4992 9.47688 30.3226 8.62368 31.2748 7.94316L30.4097 6.7507C29.3058 7.53956 28.3608 8.5231 27.5739 9.69449L28.8057 10.5096ZM31.2637 7.95099C32.1857 7.31729 33.3471 6.97958 34.79 6.97958V5.51019C33.1078 5.51019 31.637 5.90717 30.4208 6.74286L31.2637 7.95099ZM34.79 6.97958C35.661 6.97958 36.5322 7.0385 37.4042 7.15652L37.6041 5.7006C36.6667 5.57372 35.7284 5.51019 34.79 5.51019V6.97958ZM37.4042 7.15652C38.2244 7.26753 38.8094 7.4996 39.2118 7.80682L40.1144 6.64214C39.4477 6.13302 38.5932 5.83449 37.6041 5.7006L37.4042 7.15652ZM39.1985 7.79636C40.3742 8.73741 41.2906 9.94549 41.9454 11.4364L43.3025 10.8493C42.5591 9.15653 41.5018 7.75236 40.1277 6.65257L39.1985 7.79636ZM41.9484 11.4429C42.5929 12.8729 42.9324 14.6819 42.9324 16.8979H44.4128C44.4128 14.5426 44.0533 12.5148 43.2995 10.8428L41.9484 11.4429ZM40.0727 17.0761C40.2837 16.2386 40.4342 15.4741 40.521 14.785L39.0519 14.6027C38.9742 15.2197 38.8368 15.9246 38.6367 16.7198L40.0727 17.0761ZM40.5141 14.8292C40.6439 14.1422 40.7117 13.5041 40.7117 12.9184H39.2313C39.2313 13.3939 39.1758 13.9394 39.0588 14.5585L40.5141 14.8292ZM40.7117 12.9184C40.7117 11.1238 39.9345 9.63087 38.4533 8.48225L37.5419 9.64018C38.6924 10.5324 39.2313 11.6108 39.2313 12.9184H40.7117ZM38.46 8.48751C37.9539 8.08569 37.3882 7.83435 36.7694 7.77851L36.6351 9.24187C36.9211 9.26766 37.2189 9.38367 37.5352 9.63491L38.46 8.48751ZM36.8473 7.78975C36.3655 7.6941 35.7331 7.65305 34.9751 7.65305V9.12244C35.6975 9.12244 36.2167 9.16304 36.5572 9.23061L36.8473 7.78975ZM34.9751 7.65305C32.7061 7.65305 30.8612 8.26214 29.5691 9.59205L30.635 10.612C31.5634 9.65622 32.9674 9.12244 34.9751 9.12244V7.65305ZM29.5688 9.59242C28.4437 10.7521 27.5155 12.0817 26.7836 13.577L28.1155 14.2189C28.782 12.8571 29.6219 11.656 30.6352 10.6116L29.5688 9.59242ZM26.7876 13.5694C25.5672 15.9917 24.6431 18.5782 24.0137 21.3269L25.4572 21.6526C26.0614 19.0136 26.9467 16.5389 28.1116 14.2265L26.7876 13.5694ZM24.0142 21.3245C23.3869 24.0228 22.9099 27.3252 22.5791 31.224L24.0543 31.3474C24.3815 27.4913 24.8504 24.263 25.4567 21.6551L24.0142 21.3245ZM22.5791 31.2247C22.5379 31.7145 22.4968 32.2043 22.4557 32.6941L23.931 32.8161C23.9721 32.3263 24.0133 31.8365 24.0544 31.3467L22.5791 31.2247ZM22.4562 32.6885C22.4171 33.1156 22.3584 33.5429 22.28 33.9705L23.7366 34.2335C23.8227 33.7633 23.8874 33.2926 23.9305 32.8217L22.4562 32.6885ZM23.0301 34.8365C24.5027 34.7934 25.8803 34.535 27.157 34.0543L26.6319 32.6804C25.5235 33.0977 24.3103 33.3291 22.9865 33.3676L23.0301 34.8365ZM27.1774 34.0462C28.4054 33.5419 29.5713 32.9527 30.6749 32.2788L29.8992 31.0273C28.8644 31.6594 27.7686 32.2131 26.6114 32.6885L27.1774 34.0462ZM30.6749 32.2788C31.7376 31.6298 32.7372 31.0425 33.6738 30.5172L32.9454 29.2379C31.9905 29.7737 30.975 30.3703 29.8992 31.0273L30.6749 32.2788ZM33.6691 30.5197C34.885 29.8494 35.8789 28.9298 36.6433 27.7695L35.4042 26.9652C34.7705 27.9272 33.9548 28.6812 32.9501 29.2354L33.6691 30.5197ZM36.6396 27.7748C37.4215 26.6108 38.0087 25.3589 38.4001 24.021L36.9784 23.6116C36.6295 24.8045 36.1064 25.9197 35.4079 26.9598L36.6396 27.7748ZM38.3956 24.0355C38.8141 22.7069 39.1496 21.4166 39.4021 20.1644L37.9502 19.8764C37.7092 21.0732 37.3869 22.3134 36.9828 23.5971L38.3956 24.0355ZM39.4021 20.1644C39.6476 18.9454 39.8718 17.9139 40.0747 17.0681L38.6347 16.7278C38.4262 17.5963 38.1982 18.6464 37.9502 19.8764L39.4021 20.1644ZM9.89211 47.7103C9.12732 47.3307 8.34146 46.9935 7.53465 46.6984L7.02287 48.0771C7.77873 48.3536 8.51443 48.6693 9.23006 49.0244L9.89211 47.7103ZM7.53465 46.6984C6.68664 46.3883 5.85945 46.2245 5.05812 46.2245V47.6939C5.65498 47.6939 6.3082 47.8158 7.02287 48.0771L7.53465 46.6984ZM5.05812 46.2245C4.46343 46.2245 3.90097 46.3873 3.38191 46.6966L4.14359 47.9564C4.44698 47.7759 4.7481 47.6939 5.05812 47.6939V46.2245ZM3.35215 46.7153C2.82386 47.0647 2.46738 47.58 2.46738 48.2449H3.9478C3.9478 48.1751 3.96142 48.0781 4.17335 47.9378L3.35215 46.7153ZM2.46738 48.2449C2.46738 48.9068 2.64986 49.5262 3.11597 49.9888L4.16278 48.9499C4.05318 48.841 3.9478 48.6441 3.9478 48.2449H2.46738ZM3.08232 49.9533C3.50069 50.4277 4.04855 50.6939 4.68802 50.6939V49.2245C4.50503 49.2245 4.35378 49.164 4.19644 48.9855L3.08232 49.9533ZM4.68802 50.6939C5.75762 50.6939 6.74176 50.5168 7.6277 50.1465L7.0532 48.7922C6.37647 49.0751 5.59231 49.2245 4.68802 49.2245V50.6939ZM7.58499 50.1629C8.4638 49.8575 9.26372 49.4618 9.98044 48.9727L9.14173 47.7619C8.54253 48.1707 7.86203 48.5099 7.09591 48.7758L7.58499 50.1629Z" fill="#1E1E1E"/>
</g>
<path d="M59.7846 29.8286H65.3115V33.0612H55.5654V15.8694H59.7846V29.8286ZM71.5431 19.2245V22.7021H77.1934V25.9347H71.5431V29.7061H77.9336V33.0612H67.3239V15.8694H77.9336V19.2245H71.5431ZM84.8921 15.8694V33.0612H80.6729V15.8694H84.8921ZM100.41 15.8694V19.2245H95.8207V33.0612H91.6014V19.2245H87.0121V15.8694H100.41ZM122.143 15.8694V33.0612H117.924V22.751L114.05 33.0612H110.645L106.747 22.7266V33.0612H102.527V15.8694H107.512L112.372 27.7714L117.184 15.8694H122.143ZM133.369 33.2327C131.74 33.2327 130.244 32.8572 128.878 32.1061C127.529 31.355 126.452 30.3103 125.646 28.9715C124.857 27.6164 124.462 26.0981 124.462 24.4163C124.462 22.7346 124.857 21.2246 125.646 19.8857C126.452 18.547 127.529 17.5021 128.878 16.751C130.244 16 131.74 15.6245 133.369 15.6245C134.997 15.6245 136.486 16 137.835 16.751C139.2 17.5021 140.269 18.547 141.043 19.8857C141.832 21.2246 142.227 22.7346 142.227 24.4163C142.227 26.0981 141.832 27.6164 141.043 28.9715C140.253 30.3103 139.184 31.355 137.835 32.1061C136.486 32.8572 134.997 33.2327 133.369 33.2327ZM133.369 29.4123C134.751 29.4123 135.853 28.955 136.675 28.0408C137.514 27.1266 137.934 25.9183 137.934 24.4163C137.934 22.898 137.514 21.6899 136.675 20.7919C135.853 19.8777 134.751 19.4204 133.369 19.4204C131.971 19.4204 130.852 19.8693 130.013 20.7674C129.191 21.6654 128.78 22.8816 128.78 24.4163C128.78 25.9347 129.191 27.1511 130.013 28.0653C130.852 28.9634 131.971 29.4123 133.369 29.4123ZM157.034 15.8694V19.2245H152.445V33.0612H148.226V19.2245H143.636V15.8694H157.034ZM163.371 19.2245V22.7021H169.021V25.9347H163.371V29.7061H169.762V33.0612H159.152V15.8694H169.762V19.2245H163.371ZM171.785 24.4408C171.785 22.743 172.155 21.2327 172.896 19.9102C173.636 18.5714 174.664 17.5347 175.98 16.8C177.312 16.049 178.817 15.6735 180.495 15.6735C182.551 15.6735 184.311 16.2123 185.775 17.2898C187.239 18.3674 188.218 19.8368 188.712 21.698H184.073C183.727 20.9797 183.234 20.4326 182.592 20.0572C181.967 19.6817 181.252 19.4939 180.446 19.4939C179.146 19.4939 178.093 19.9428 177.288 20.8408C176.481 21.7389 176.079 22.9389 176.079 24.4408C176.079 25.9428 176.481 27.1428 177.288 28.0408C178.093 28.9389 179.146 29.3878 180.446 29.3878C181.252 29.3878 181.967 29.1999 182.592 28.8245C183.234 28.4491 183.727 27.902 184.073 27.1837H188.712C188.218 29.0449 187.239 30.5143 185.775 31.5919C184.311 32.653 182.551 33.1837 180.495 33.1837C178.817 33.1837 177.312 32.8163 175.98 32.0817C174.664 31.3306 173.636 30.2939 172.896 28.9715C172.155 27.649 171.785 26.1387 171.785 24.4408ZM206.297 15.8694V33.0612H202.078V25.9837H195.515V33.0612H191.295V15.8694H195.515V22.6041H202.078V15.8694H206.297Z" fill="#353E40"/>
<path d="M57.1543 47.8236C56.6478 47.8236 56.1938 47.7421 55.7923 47.5787C55.3909 47.4154 55.0686 47.1739 54.8251 46.8539C54.5882 46.5338 54.4632 46.1485 54.4501 45.6979H56.2463C56.2727 45.9526 56.3616 46.1485 56.5128 46.2857C56.6641 46.4162 56.8614 46.4816 57.105 46.4816C57.3549 46.4816 57.5523 46.426 57.6971 46.3151C57.842 46.1975 57.9143 46.0376 57.9143 45.8351C57.9143 45.6654 57.8551 45.5248 57.7366 45.4138C57.6249 45.3029 57.4832 45.2113 57.3122 45.1396C57.1477 45.0678 56.9108 44.986 56.6016 44.8947C56.1543 44.7575 55.7891 44.6204 55.5061 44.4832C55.2231 44.3461 54.9798 44.1436 54.7758 43.8759C54.5717 43.6082 54.4698 43.2587 54.4698 42.8277C54.4698 42.1878 54.7035 41.6882 55.1706 41.3289C55.6376 40.9633 56.2463 40.7804 56.9964 40.7804C57.7596 40.7804 58.3749 40.9633 58.842 41.3289C59.3091 41.6882 59.5593 42.191 59.5921 42.8375H57.7662C57.7532 42.6154 57.6707 42.4425 57.5195 42.3183C57.3682 42.1878 57.1741 42.1224 56.9372 42.1224C56.7331 42.1224 56.5688 42.178 56.4437 42.2889C56.3186 42.3935 56.2562 42.5468 56.2562 42.7494C56.2562 42.9715 56.3616 43.1444 56.572 43.2685C56.7825 43.3927 57.1116 43.5264 57.559 43.6702C58.0063 43.8203 58.3683 43.9641 58.6446 44.1012C58.9276 44.2383 59.1709 44.4374 59.375 44.6987C59.579 44.9601 59.6809 45.2963 59.6809 45.7077C59.6809 46.0996 59.579 46.4554 59.375 46.7755C59.1776 47.0956 58.8881 47.3503 58.5064 47.5396C58.1247 47.7289 57.6742 47.8236 57.1543 47.8236ZM63.2263 47.8334C62.6869 47.8334 62.1999 47.7191 61.7656 47.4906C61.338 47.2621 60.9992 46.9354 60.749 46.511C60.5058 46.0866 60.3839 45.5902 60.3839 45.022C60.3839 44.4605 60.509 43.9672 60.7589 43.5428C61.0091 43.1118 61.3511 42.7819 61.7853 42.5534C62.2196 42.3249 62.7067 42.2106 63.246 42.2106C63.7857 42.2106 64.2725 42.3249 64.7067 42.5534C65.141 42.7819 65.4832 43.1118 65.7331 43.5428C65.9833 43.9672 66.1082 44.4605 66.1082 45.022C66.1082 45.5836 65.9799 46.08 65.7233 46.511C65.4733 46.9354 65.1279 47.2621 64.687 47.4906C64.2527 47.7191 63.7659 47.8334 63.2263 47.8334ZM63.2263 46.3836C63.5488 46.3836 63.8219 46.2661 64.0455 46.031C64.2759 45.7959 64.3909 45.4596 64.3909 45.022C64.3909 44.5844 64.2791 44.2481 64.0553 44.013C63.8382 43.7779 63.5685 43.6604 63.246 43.6604C62.9171 43.6604 62.644 43.7779 62.4269 44.013C62.2097 44.2415 62.1012 44.578 62.1012 45.022C62.1012 45.4596 62.2065 45.7959 62.417 46.031C62.6341 46.2661 62.9041 46.3836 63.2263 46.3836ZM69.7671 43.68H68.8591V47.7551H67.1714V43.68H66.5595V42.2889H67.1714V42.1322C67.1714 41.4595 67.3656 40.9501 67.7537 40.6041C68.1418 40.2514 68.711 40.0751 69.4611 40.0751C69.5862 40.0751 69.6782 40.0783 69.7375 40.0849V41.5053C69.415 41.4857 69.188 41.5315 69.0565 41.6424C68.9249 41.7534 68.8591 41.9527 68.8591 42.24V42.2889H69.7671V43.68ZM73.6295 46.3347V47.7551H72.7709C72.1589 47.7551 71.682 47.6081 71.3398 47.3143C70.9978 47.0138 70.8266 46.5274 70.8266 45.8547V43.68H70.1554V42.2889H70.8266V40.9567H72.5142V42.2889H73.6196V43.68H72.5142V45.8743C72.5142 46.0376 72.5537 46.1552 72.6327 46.2269C72.7116 46.2987 72.8434 46.3347 73.0275 46.3347H73.6295ZM82.4751 42.2889L80.9848 47.7551H79.1194L78.2509 44.209L77.3528 47.7551H75.4973L73.9971 42.2889H75.6848L76.4645 46.1975L77.3923 42.2889H79.1786L80.1162 46.1779L80.8861 42.2889H82.4751ZM82.7832 45.0122C82.7832 44.4507 82.8883 43.9574 83.0991 43.533C83.3162 43.1086 83.6088 42.7819 83.9774 42.5534C84.3458 42.3249 84.7571 42.2106 85.2111 42.2106C85.5993 42.2106 85.938 42.289 86.2277 42.4457C86.5238 42.6024 86.7508 42.8081 86.9087 43.0628V42.2889H88.5964V47.7551H86.9087V46.9812C86.7441 47.2359 86.5139 47.4416 86.2178 47.5983C85.9282 47.7551 85.5894 47.8334 85.2013 47.8334C84.7537 47.8334 84.3458 47.7191 83.9774 47.4906C83.6088 47.2555 83.3162 46.9256 83.0991 46.5012C82.8883 46.0702 82.7832 45.5738 82.7832 45.0122ZM86.9087 45.022C86.9087 44.604 86.7902 44.2743 86.5534 44.0326C86.3229 43.7909 86.0402 43.6702 85.7046 43.6702C85.369 43.6702 85.0828 43.7909 84.846 44.0326C84.6155 44.2677 84.5005 44.5942 84.5005 45.0122C84.5005 45.4303 84.6155 45.7633 84.846 46.0114C85.0828 46.2531 85.369 46.3738 85.7046 46.3738C86.0402 46.3738 86.3229 46.2531 86.5534 46.0114C86.7902 45.7697 86.9087 45.4401 86.9087 45.022ZM91.5049 43.2C91.7023 42.8995 91.949 42.6644 92.2451 42.4947C92.5412 42.3183 92.8701 42.2302 93.2321 42.2302V44.0032H92.7682C92.347 44.0032 92.0312 44.0946 91.8207 44.2775C91.6103 44.4538 91.5049 44.7673 91.5049 45.2179V47.7551H89.8172V42.2889H91.5049V43.2ZM99.23 44.9338C99.23 45.0906 99.2202 45.2539 99.2004 45.4236H95.3809C95.4073 45.7633 95.5159 46.0244 95.7066 46.2073C95.904 46.3836 96.1443 46.4718 96.4271 46.4718C96.8483 46.4718 97.1412 46.2955 97.3055 45.9428H99.1017C99.0097 46.3021 98.8419 46.6254 98.5984 46.9126C98.3615 47.1999 98.0622 47.4252 97.7003 47.5885C97.3385 47.7519 96.9339 47.8334 96.4863 47.8334C95.9469 47.8334 95.4665 47.7191 95.0454 47.4906C94.6244 47.2621 94.2953 46.9354 94.0584 46.511C93.8215 46.0866 93.7031 45.5902 93.7031 45.022C93.7031 44.4538 93.8183 43.9574 94.0485 43.533C94.2854 43.1086 94.6146 42.7819 95.0355 42.5534C95.4567 42.3249 95.9403 42.2106 96.4863 42.2106C97.0193 42.2106 97.493 42.3215 97.9075 42.5436C98.322 42.7658 98.6445 43.0824 98.8747 43.4939C99.1116 43.9053 99.23 44.3853 99.23 44.9338ZM97.5029 44.493C97.5029 44.2058 97.4042 43.977 97.2068 43.8073C97.0094 43.6376 96.7627 43.5526 96.4666 43.5526C96.1838 43.5526 95.9435 43.6342 95.7461 43.7975C95.5554 43.9609 95.4369 44.1925 95.3908 44.493H97.5029ZM104.808 40.8783C105.538 40.8783 106.176 41.0221 106.722 41.3094C107.269 41.5966 107.689 42.0017 107.986 42.5241C108.288 43.0401 108.44 43.6376 108.44 44.3167C108.44 44.9894 108.288 45.587 107.986 46.1094C107.689 46.6317 107.265 47.0368 106.712 47.3241C106.166 47.6113 105.531 47.7551 104.808 47.7551H102.212V40.8783H104.808ZM104.699 46.3053C105.337 46.3053 105.834 46.1321 106.189 45.7861C106.545 45.4401 106.722 44.9503 106.722 44.3167C106.722 43.6832 106.545 43.1902 106.189 42.8375C105.834 42.4849 105.337 42.3085 104.699 42.3085H103.9V46.3053H104.699ZM114.574 44.9338C114.574 45.0906 114.564 45.2539 114.545 45.4236H110.725C110.751 45.7633 110.86 46.0244 111.051 46.2073C111.248 46.3836 111.488 46.4718 111.771 46.4718C112.192 46.4718 112.485 46.2955 112.65 45.9428H114.446C114.354 46.3021 114.186 46.6254 113.943 46.9126C113.706 47.1999 113.406 47.4252 113.044 47.5885C112.682 47.7519 112.278 47.8334 111.83 47.8334C111.291 47.8334 110.811 47.7191 110.389 47.4906C109.968 47.2621 109.639 46.9354 109.403 46.511C109.166 46.0866 109.047 45.5902 109.047 45.022C109.047 44.4538 109.162 43.9574 109.393 43.533C109.63 43.1086 109.958 42.7819 110.38 42.5534C110.801 42.3249 111.284 42.2106 111.83 42.2106C112.363 42.2106 112.837 42.3215 113.252 42.5436C113.666 42.7658 113.989 43.0824 114.219 43.4939C114.456 43.9053 114.574 44.3853 114.574 44.9338ZM112.847 44.493C112.847 44.2058 112.748 43.977 112.551 43.8073C112.354 43.6376 112.107 43.5526 111.811 43.5526C111.528 43.5526 111.288 43.6342 111.09 43.7975C110.899 43.9609 110.781 44.1925 110.735 44.493H112.847ZM117.942 46.1877L119.136 42.2889H120.932L118.978 47.7551H116.895L114.941 42.2889H116.747L117.942 46.1877ZM126.834 44.9338C126.834 45.0906 126.824 45.2539 126.804 45.4236H122.985C123.011 45.7633 123.12 46.0244 123.31 46.2073C123.508 46.3836 123.748 46.4718 124.031 46.4718C124.452 46.4718 124.745 46.2955 124.909 45.9428H126.706C126.613 46.3021 126.446 46.6254 126.202 46.9126C125.965 47.1999 125.666 47.4252 125.304 47.5885C124.942 47.7519 124.538 47.8334 124.09 47.8334C123.551 47.8334 123.07 47.7191 122.649 47.4906C122.228 47.2621 121.899 46.9354 121.662 46.511C121.425 46.0866 121.307 45.5902 121.307 45.022C121.307 44.4538 121.422 43.9574 121.652 43.533C121.889 43.1086 122.218 42.7819 122.639 42.5534C123.06 42.3249 123.544 42.2106 124.09 42.2106C124.623 42.2106 125.097 42.3215 125.511 42.5436C125.926 42.7658 126.248 43.0824 126.479 43.4939C126.715 43.9053 126.834 44.3853 126.834 44.9338ZM125.107 44.493C125.107 44.2058 125.008 43.977 124.811 43.8073C124.613 43.6376 124.366 43.5526 124.07 43.5526C123.788 43.5526 123.547 43.6342 123.35 43.7975C123.159 43.9609 123.041 44.1925 122.995 44.493H125.107ZM129.412 40.5061V47.7551H127.724V40.5061H129.412ZM133.142 47.8334C132.602 47.8334 132.116 47.7191 131.681 47.4906C131.253 47.2621 130.915 46.9354 130.665 46.511C130.421 46.0866 130.3 45.5902 130.3 45.022C130.3 44.4605 130.424 43.9672 130.675 43.5428C130.925 43.1118 131.267 42.7819 131.701 42.5534C132.135 42.3249 132.622 42.2106 133.162 42.2106C133.701 42.2106 134.188 42.3249 134.622 42.5534C135.057 42.7819 135.399 43.1118 135.649 43.5428C135.899 43.9672 136.024 44.4605 136.024 45.022C136.024 45.5836 135.896 46.08 135.639 46.511C135.389 46.9354 135.043 47.2621 134.603 47.4906C134.168 47.7191 133.681 47.8334 133.142 47.8334ZM133.142 46.3836C133.464 46.3836 133.737 46.2661 133.961 46.031C134.191 45.7959 134.307 45.4596 134.307 45.022C134.307 44.5844 134.195 44.2481 133.971 44.013C133.754 43.7779 133.484 43.6604 133.162 43.6604C132.833 43.6604 132.56 43.7779 132.343 44.013C132.125 44.2415 132.017 44.578 132.017 45.022C132.017 45.4596 132.122 45.7959 132.333 46.031C132.55 46.2661 132.819 46.3836 133.142 46.3836ZM138.607 43.0628C138.771 42.8081 138.998 42.6024 139.288 42.4457C139.577 42.289 139.916 42.2106 140.304 42.2106C140.758 42.2106 141.17 42.3249 141.538 42.5534C141.907 42.7819 142.196 43.1086 142.407 43.533C142.624 43.9574 142.732 44.4507 142.732 45.0122C142.732 45.5738 142.624 46.0702 142.407 46.5012C142.196 46.9256 141.907 47.2555 141.538 47.4906C141.17 47.7191 140.758 47.8334 140.304 47.8334C139.923 47.8334 139.584 47.7551 139.288 47.5983C138.998 47.4416 138.771 47.2391 138.607 46.991V50.3608H136.919V42.2889H138.607V43.0628ZM141.015 45.0122C141.015 44.5942 140.897 44.2677 140.66 44.0326C140.429 43.7909 140.143 43.6702 139.801 43.6702C139.466 43.6702 139.179 43.7909 138.942 44.0326C138.712 44.2743 138.597 44.604 138.597 45.022C138.597 45.4401 138.712 45.7697 138.942 46.0114C139.179 46.2531 139.466 46.3738 139.801 46.3738C140.137 46.3738 140.423 46.2531 140.66 46.0114C140.897 45.7633 141.015 45.4303 141.015 45.0122ZM150.645 42.2302C151.329 42.2302 151.872 42.4359 152.273 42.8473C152.681 43.2587 152.885 43.8301 152.885 44.5616V47.7551H151.207V44.7869C151.207 44.4343 151.112 44.1632 150.921 43.9738C150.737 43.7779 150.48 43.68 150.151 43.68C149.822 43.68 149.562 43.7779 149.372 43.9738C149.187 44.1632 149.095 44.4343 149.095 44.7869V47.7551H147.417V44.7869C147.417 44.4343 147.322 44.1632 147.131 43.9738C146.947 43.7779 146.69 43.68 146.361 43.68C146.032 43.68 145.772 43.7779 145.582 43.9738C145.397 44.1632 145.305 44.4343 145.305 44.7869V47.7551H143.618V42.2889H145.305V42.9747C145.476 42.7462 145.7 42.5664 145.976 42.4359C146.253 42.2987 146.565 42.2302 146.914 42.2302C147.329 42.2302 147.697 42.3183 148.019 42.4947C148.348 42.671 148.605 42.9225 148.789 43.249C148.98 42.9485 149.24 42.7036 149.569 42.5143C149.898 42.325 150.257 42.2302 150.645 42.2302ZM159.257 44.9338C159.257 45.0906 159.247 45.2539 159.227 45.4236H155.408C155.434 45.7633 155.543 46.0244 155.733 46.2073C155.931 46.3836 156.171 46.4718 156.454 46.4718C156.875 46.4718 157.168 46.2955 157.332 45.9428H159.129C159.036 46.3021 158.869 46.6254 158.625 46.9126C158.388 47.1999 158.089 47.4252 157.727 47.5885C157.365 47.7519 156.961 47.8334 156.513 47.8334C155.974 47.8334 155.493 47.7191 155.072 47.4906C154.651 47.2621 154.322 46.9354 154.085 46.511C153.848 46.0866 153.73 45.5902 153.73 45.022C153.73 44.4538 153.845 43.9574 154.075 43.533C154.312 43.1086 154.641 42.7819 155.062 42.5534C155.483 42.3249 155.967 42.2106 156.513 42.2106C157.046 42.2106 157.52 42.3215 157.934 42.5436C158.349 42.7658 158.671 43.0824 158.902 43.4939C159.138 43.9053 159.257 44.3853 159.257 44.9338ZM157.53 44.493C157.53 44.2058 157.431 43.977 157.234 43.8073C157.036 43.6376 156.79 43.5526 156.493 43.5526C156.21 43.5526 155.97 43.6342 155.773 43.7975C155.582 43.9609 155.464 44.1925 155.418 44.493H157.53ZM163.503 42.2302C164.148 42.2302 164.661 42.4391 165.042 42.8571C165.431 43.2685 165.625 43.8367 165.625 44.5616V47.7551H163.947V44.7869C163.947 44.4213 163.851 44.1372 163.661 43.9347C163.47 43.7321 163.213 43.631 162.891 43.631C162.568 43.631 162.312 43.7321 162.121 43.9347C161.93 44.1372 161.835 44.4213 161.835 44.7869V47.7551H160.147V42.2889H161.835V43.0138C162.006 42.7721 162.236 42.5828 162.526 42.4457C162.815 42.3019 163.141 42.2302 163.503 42.2302ZM169.867 46.3347V47.7551H169.008C168.396 47.7551 167.919 47.6081 167.577 47.3143C167.235 47.0138 167.064 46.5274 167.064 45.8547V43.68H166.393V42.2889H167.064V40.9567H168.752V42.2889H169.857V43.68H168.752V45.8743C168.752 46.0376 168.791 46.1552 168.87 46.2269C168.949 46.2987 169.081 46.3347 169.265 46.3347H169.867Z" fill="#353E40"/>
</svg>
