<svg width="500" height="500" viewBox="0 0 500 500" fill="none" xmlns="http://www.w3.org/2000/svg">
<rect width="500" height="500" fill="#1E1A1F"/>
<g filter="url(#filter0_d_1_15)">
<mask id="path-2-outside-1_1_15" maskUnits="userSpaceOnUse" x="156" y="115" width="215" height="252" fill="black">
<rect fill="white" x="156" y="115" width="215" height="252"/>
<path d="M367.4 170.8C367.4 182.4 365.1 192.6 360.5 201.4C355.9 210 350 217.5 342.8 223.9C335.6 230.3 328.1 235.7 320.3 240.1C315.5 242.7 310.2 245.7 304.4 249.1C298.8 252.3 292.8 255.1 286.4 257.5C280 259.9 273.1 261.1 265.7 261.1C263.7 271.5 260.5 281.3 256.1 290.5C251.7 299.5 246 307.5 239 314.5C237.2 316.3 235 318.2 232.4 320.2C230 322 227.3 323.7 224.3 325.3C228.9 326.9 232.8 328.2 236 329.2C239.4 330.4 243.5 331.8 248.3 333.4C253.7 335.2 258.3 337.2 262.1 339.4C265.9 341.6 269.6 343.8 273.2 346C276.8 348.2 280.8 350 285.2 351.4C289.6 352.8 295.1 353.5 301.7 353.5C308.1 353.5 314.4 352.5 320.6 350.5C327 348.7 332.3 345.8 336.5 341.8C340.9 338 343.1 333 343.1 326.8C343.1 321 341.1 316.8 337.1 314.2C333.1 311.4 328.2 310 322.4 310C318 310 314.4 312 311.6 316C308.8 319.8 306.8 323.1 305.6 325.9C303.6 330.1 301.9 332.2 300.5 332.2C298.9 332.2 298.1 330.5 298.1 327.1C298.1 325.3 298.4 323.3 299 321.1C299.8 318.9 300.9 316.8 302.3 314.8C304.5 311.6 307.1 309 310.1 307C313.1 305 317.2 304 322.4 304C329.8 304 336.5 306.1 342.5 310.3C348.5 314.3 351.5 320 351.5 327.4C351.5 334.6 349.3 340.9 344.9 346.3C340.7 351.7 335.2 355.9 328.4 358.9C321.8 361.9 314.8 363.4 307.4 363.4C298.4 363.4 291.2 362.6 285.8 361C280.4 359.6 275.3 357.7 270.5 355.3C265.9 353.1 260.1 350.9 253.1 348.7C248.1 347.1 242.2 344.5 235.4 340.9C228.6 337.5 222.6 334.8 217.4 332.8C216.8 332.4 216.1 332 215.3 331.6C214.7 331.4 214 331.1 213.2 330.7C207.6 333.1 201.7 335 195.5 336.4C189.5 338 183.6 338.8 177.8 338.8C175.8 338.8 173.3 338 170.3 336.4C167.5 335 165 333.1 162.8 330.7C160.8 328.3 159.8 325.7 159.8 322.9C159.8 321.1 160.5 319 161.9 316.6C163.5 314 165.4 311.8 167.6 310C170 308.2 172.3 307.3 174.5 307.3C179.1 307.3 184.6 308.5 191 310.9C197.6 313.3 203.7 315.9 209.3 318.7C211.3 316.7 213.2 314.8 215 313C216.8 311 218.6 309.1 220.4 307.3C226.4 301.3 231.5 294.2 235.7 286C239.9 277.8 243.6 269.2 246.8 260.2C237.6 259.4 228.6 257.9 219.8 255.7C211 253.3 203 250 195.8 245.8C188.8 241.6 183.1 236.4 178.7 230.2C174.5 223.8 172.4 216.2 172.4 207.4C172.4 198 174.8 189.2 179.6 181C184.6 172.6 191.1 165.8 199.1 160.6C207.1 155.4 215.7 152.8 224.9 152.8C236.3 152.8 245.4 154.8 252.2 158.8C259 162.8 262.4 170.5 262.4 181.9C262.4 187.3 260.7 192.6 257.3 197.8C254.1 202.8 250.8 206.4 247.4 208.6C246.6 209 246.1 209.2 245.9 209.2C244.1 209.2 243.2 208.2 243.2 206.2C243.2 205 243.6 204.1 244.4 203.5C246.6 201.7 249.1 198.8 251.9 194.8C254.9 190.8 256.4 186.5 256.4 181.9C256.4 172.5 253.5 166.3 247.7 163.3C241.9 160.3 234.3 158.8 224.9 158.8C216.7 158.8 209.8 161.2 204.2 166C198.6 170.8 194.4 177 191.6 184.6C188.8 192 187.4 200 187.4 208.6C187.4 219.2 190.3 227.7 196.1 234.1C201.9 240.5 209.5 245.3 218.9 248.5C228.3 251.5 238.3 253.5 248.9 254.5C250.3 250.5 251.6 246.6 252.8 242.8C254 239 255.2 235.2 256.4 231.4C261 218 265.1 204.6 268.7 191.2C272.5 177.6 277.3 165 283.1 153.4C285.7 148 288.7 142.7 292.1 137.5C295.7 132.1 300 127.6 305 124C310.2 120.4 316.6 118.6 324.2 118.6C328.6 118.6 333 118.9 337.4 119.5C341.8 120.1 345.3 121.4 347.9 123.4C354.1 128.4 358.9 134.8 362.3 142.6C365.7 150.2 367.4 159.6 367.4 170.8ZM346.4 170.8C347.4 166.8 348.1 163.2 348.5 160C349.1 156.8 349.4 153.9 349.4 151.3C349.4 143.7 346.2 137.4 339.8 132.4C337.8 130.8 335.7 129.9 333.5 129.7C331.5 129.3 328.7 129.1 325.1 129.1C314.7 129.1 306.8 131.9 301.4 137.5C296.2 142.9 291.9 149.1 288.5 156.1C282.7 167.7 278.3 180.1 275.3 193.3C272.3 206.3 270 222.3 268.4 241.3C268.2 243.7 268 246.1 267.8 248.5C267.6 250.7 267.3 252.9 266.9 255.1C273.7 254.9 280 253.7 285.8 251.5C291.6 249.1 297.1 246.3 302.3 243.1C307.5 239.9 312.4 237 317 234.4C322.4 231.4 326.8 227.3 330.2 222.1C333.8 216.7 336.5 210.9 338.3 204.7C340.3 198.3 341.9 192.1 343.1 186.1C344.3 180.1 345.4 175 346.4 170.8ZM201.5 325C197.9 323.2 194.2 321.6 190.4 320.2C186.6 318.8 183 318.1 179.6 318.1C177.4 318.1 175.3 318.7 173.3 319.9C171.5 321.1 170.6 322.6 170.6 324.4C170.6 327 171.3 329 172.7 330.4C174.1 332 175.8 332.8 177.8 332.8C182.6 332.8 186.9 332 190.7 330.4C194.7 329 198.3 327.2 201.5 325Z"/>
</mask>
<path d="M367.4 170.8C367.4 182.4 365.1 192.6 360.5 201.4C355.9 210 350 217.5 342.8 223.9C335.6 230.3 328.1 235.7 320.3 240.1C315.5 242.7 310.2 245.7 304.4 249.1C298.8 252.3 292.8 255.1 286.4 257.5C280 259.9 273.1 261.1 265.7 261.1C263.7 271.5 260.5 281.3 256.1 290.5C251.7 299.5 246 307.5 239 314.5C237.2 316.3 235 318.2 232.4 320.2C230 322 227.3 323.7 224.3 325.3C228.9 326.9 232.8 328.2 236 329.2C239.4 330.4 243.5 331.8 248.3 333.4C253.7 335.2 258.3 337.2 262.1 339.4C265.9 341.6 269.6 343.8 273.2 346C276.8 348.2 280.8 350 285.2 351.4C289.6 352.8 295.1 353.5 301.7 353.5C308.1 353.5 314.4 352.5 320.6 350.5C327 348.7 332.3 345.8 336.5 341.8C340.9 338 343.1 333 343.1 326.8C343.1 321 341.1 316.8 337.1 314.2C333.1 311.4 328.2 310 322.4 310C318 310 314.4 312 311.6 316C308.8 319.8 306.8 323.1 305.6 325.9C303.6 330.1 301.9 332.2 300.5 332.2C298.9 332.2 298.1 330.5 298.1 327.1C298.1 325.3 298.4 323.3 299 321.1C299.8 318.9 300.9 316.8 302.3 314.8C304.5 311.6 307.1 309 310.1 307C313.1 305 317.2 304 322.4 304C329.8 304 336.5 306.1 342.5 310.3C348.5 314.3 351.5 320 351.5 327.4C351.5 334.6 349.3 340.9 344.9 346.3C340.7 351.7 335.2 355.9 328.4 358.9C321.8 361.9 314.8 363.4 307.4 363.4C298.4 363.4 291.2 362.6 285.8 361C280.4 359.6 275.3 357.7 270.5 355.3C265.9 353.1 260.1 350.9 253.1 348.7C248.1 347.1 242.2 344.5 235.4 340.9C228.6 337.5 222.6 334.8 217.4 332.8C216.8 332.4 216.1 332 215.3 331.6C214.7 331.4 214 331.1 213.2 330.7C207.6 333.1 201.7 335 195.5 336.4C189.5 338 183.6 338.8 177.8 338.8C175.8 338.8 173.3 338 170.3 336.4C167.5 335 165 333.1 162.8 330.7C160.8 328.3 159.8 325.7 159.8 322.9C159.8 321.1 160.5 319 161.9 316.6C163.5 314 165.4 311.8 167.6 310C170 308.2 172.3 307.3 174.5 307.3C179.1 307.3 184.6 308.5 191 310.9C197.6 313.3 203.7 315.9 209.3 318.7C211.3 316.7 213.2 314.8 215 313C216.8 311 218.6 309.1 220.4 307.3C226.4 301.3 231.5 294.2 235.7 286C239.9 277.8 243.6 269.2 246.8 260.2C237.6 259.4 228.6 257.9 219.8 255.7C211 253.3 203 250 195.8 245.8C188.8 241.6 183.1 236.4 178.7 230.2C174.5 223.8 172.4 216.2 172.4 207.4C172.4 198 174.8 189.2 179.6 181C184.6 172.6 191.1 165.8 199.1 160.6C207.1 155.4 215.7 152.8 224.9 152.8C236.3 152.8 245.4 154.8 252.2 158.8C259 162.8 262.4 170.5 262.4 181.9C262.4 187.3 260.7 192.6 257.3 197.8C254.1 202.8 250.8 206.4 247.4 208.6C246.6 209 246.1 209.2 245.9 209.2C244.1 209.2 243.2 208.2 243.2 206.2C243.2 205 243.6 204.1 244.4 203.5C246.6 201.7 249.1 198.8 251.9 194.8C254.9 190.8 256.4 186.5 256.4 181.9C256.4 172.5 253.5 166.3 247.7 163.3C241.9 160.3 234.3 158.8 224.9 158.8C216.7 158.8 209.8 161.2 204.2 166C198.6 170.8 194.4 177 191.6 184.6C188.8 192 187.4 200 187.4 208.6C187.4 219.2 190.3 227.7 196.1 234.1C201.9 240.5 209.5 245.3 218.9 248.5C228.3 251.5 238.3 253.5 248.9 254.5C250.3 250.5 251.6 246.6 252.8 242.8C254 239 255.2 235.2 256.4 231.4C261 218 265.1 204.6 268.7 191.2C272.5 177.6 277.3 165 283.1 153.4C285.7 148 288.7 142.7 292.1 137.5C295.7 132.1 300 127.6 305 124C310.2 120.4 316.6 118.6 324.2 118.6C328.6 118.6 333 118.9 337.4 119.5C341.8 120.1 345.3 121.4 347.9 123.4C354.1 128.4 358.9 134.8 362.3 142.6C365.7 150.2 367.4 159.6 367.4 170.8ZM346.4 170.8C347.4 166.8 348.1 163.2 348.5 160C349.1 156.8 349.4 153.9 349.4 151.3C349.4 143.7 346.2 137.4 339.8 132.4C337.8 130.8 335.7 129.9 333.5 129.7C331.5 129.3 328.7 129.1 325.1 129.1C314.7 129.1 306.8 131.9 301.4 137.5C296.2 142.9 291.9 149.1 288.5 156.1C282.7 167.7 278.3 180.1 275.3 193.3C272.3 206.3 270 222.3 268.4 241.3C268.2 243.7 268 246.1 267.8 248.5C267.6 250.7 267.3 252.9 266.9 255.1C273.7 254.9 280 253.7 285.8 251.5C291.6 249.1 297.1 246.3 302.3 243.1C307.5 239.9 312.4 237 317 234.4C322.4 231.4 326.8 227.3 330.2 222.1C333.8 216.7 336.5 210.9 338.3 204.7C340.3 198.3 341.9 192.1 343.1 186.1C344.3 180.1 345.4 175 346.4 170.8ZM201.5 325C197.9 323.2 194.2 321.6 190.4 320.2C186.6 318.8 183 318.1 179.6 318.1C177.4 318.1 175.3 318.7 173.3 319.9C171.5 321.1 170.6 322.6 170.6 324.4C170.6 327 171.3 329 172.7 330.4C174.1 332 175.8 332.8 177.8 332.8C182.6 332.8 186.9 332 190.7 330.4C194.7 329 198.3 327.2 201.5 325Z" fill="#EEEEEE"/>
<path d="M360.5 201.4L363.145 202.815L363.152 202.802L363.159 202.79L360.5 201.4ZM320.3 240.1L321.729 242.738L321.752 242.726L321.774 242.713L320.3 240.1ZM304.4 249.1L305.888 251.705L305.903 251.696L305.917 251.688L304.4 249.1ZM286.4 257.5L287.453 260.309H287.453L286.4 257.5ZM265.7 261.1V258.1H263.222L262.754 260.533L265.7 261.1ZM256.1 290.5L258.795 291.818L258.801 291.806L258.806 291.794L256.1 290.5ZM239 314.5L236.879 312.379L239 314.5ZM232.4 320.2L234.2 322.6L234.215 322.589L234.229 322.578L232.4 320.2ZM224.3 325.3L222.888 322.653L216.837 325.88L223.314 328.133L224.3 325.3ZM236 329.2L236.998 326.371L236.947 326.353L236.895 326.337L236 329.2ZM248.3 333.4L249.249 330.554L248.3 333.4ZM262.1 339.4L263.603 336.804L262.1 339.4ZM285.2 351.4L284.29 354.259L285.2 351.4ZM320.6 350.5L319.788 347.612L319.733 347.627L319.679 347.645L320.6 350.5ZM336.5 341.8L334.539 339.53L334.484 339.577L334.431 339.628L336.5 341.8ZM337.1 314.2L335.38 316.658L335.422 316.687L335.465 316.715L337.1 314.2ZM311.6 316L314.015 317.78L314.037 317.75L314.058 317.72L311.6 316ZM305.6 325.9L308.309 327.19L308.334 327.136L308.357 327.082L305.6 325.9ZM299 321.1L296.181 320.075L296.138 320.191L296.106 320.311L299 321.1ZM302.3 314.8L304.758 316.52L304.765 316.51L304.772 316.5L302.3 314.8ZM310.1 307L311.764 309.496L310.1 307ZM342.5 310.3L340.78 312.758L340.808 312.777L340.836 312.796L342.5 310.3ZM344.9 346.3L342.574 344.405L342.553 344.431L342.532 344.458L344.9 346.3ZM328.4 358.9L327.189 356.155L327.174 356.162L327.159 356.169L328.4 358.9ZM285.8 361L286.652 358.124L286.603 358.109L286.553 358.096L285.8 361ZM270.5 355.3L271.842 352.617L271.818 352.605L271.794 352.594L270.5 355.3ZM253.1 348.7L252.186 351.557L252.193 351.56L252.201 351.562L253.1 348.7ZM235.4 340.9L236.804 338.249L236.773 338.232L236.742 338.217L235.4 340.9ZM217.4 332.8L215.736 335.296L216.013 335.481L216.323 335.6L217.4 332.8ZM215.3 331.6L216.642 328.917L216.451 328.821L216.249 328.754L215.3 331.6ZM213.2 330.7L214.542 328.017L213.297 327.394L212.018 327.943L213.2 330.7ZM195.5 336.4L194.839 333.474L194.783 333.486L194.727 333.501L195.5 336.4ZM170.3 336.4L171.712 333.753L171.677 333.734L171.642 333.717L170.3 336.4ZM162.8 330.7L160.495 332.621L160.541 332.675L160.589 332.727L162.8 330.7ZM161.9 316.6L159.345 315.028L159.326 315.058L159.309 315.088L161.9 316.6ZM167.6 310L165.8 307.6L165.749 307.638L165.7 307.678L167.6 310ZM191 310.9L189.947 313.709L189.961 313.714L189.975 313.719L191 310.9ZM209.3 318.7L207.958 321.383L209.892 322.35L211.421 320.821L209.3 318.7ZM215 313L217.121 315.121L217.177 315.066L217.23 315.007L215 313ZM220.4 307.3L222.521 309.421L220.4 307.3ZM235.7 286L238.37 287.368L235.7 286ZM246.8 260.2L249.627 261.205L250.927 257.548L247.06 257.211L246.8 260.2ZM219.8 255.7L219.011 258.594L219.041 258.603L219.072 258.61L219.8 255.7ZM195.8 245.8L194.257 248.372L194.272 248.382L194.288 248.391L195.8 245.8ZM178.7 230.2L176.192 231.846L176.222 231.892L176.253 231.936L178.7 230.2ZM179.6 181L177.022 179.466L177.017 179.475L177.011 179.484L179.6 181ZM199.1 160.6L197.465 158.085H197.465L199.1 160.6ZM252.2 158.8L250.679 161.386L252.2 158.8ZM257.3 197.8L254.789 196.158L254.781 196.171L254.773 196.183L257.3 197.8ZM247.4 208.6L248.742 211.283L248.89 211.209L249.03 211.119L247.4 208.6ZM244.4 203.5L246.2 205.9L246.251 205.862L246.3 205.822L244.4 203.5ZM251.9 194.8L249.5 193L249.471 193.039L249.442 193.08L251.9 194.8ZM247.7 163.3L249.078 160.635L249.078 160.635L247.7 163.3ZM204.2 166L202.248 163.722L204.2 166ZM191.6 184.6L194.406 185.662L194.41 185.649L194.415 185.637L191.6 184.6ZM196.1 234.1L198.323 232.085L196.1 234.1ZM218.9 248.5L217.933 251.34L217.96 251.349L217.988 251.358L218.9 248.5ZM248.9 254.5L248.618 257.487L250.956 257.707L251.732 255.491L248.9 254.5ZM252.8 242.8L249.939 241.897L252.8 242.8ZM256.4 231.4L253.563 230.426L253.55 230.461L253.539 230.497L256.4 231.4ZM268.7 191.2L265.811 190.393L265.807 190.407L265.803 190.422L268.7 191.2ZM283.1 153.4L285.783 154.742L285.793 154.722L285.803 154.701L283.1 153.4ZM292.1 137.5L289.604 135.836L289.596 135.847L289.589 135.858L292.1 137.5ZM305 124L303.292 121.533L303.27 121.549L303.247 121.565L305 124ZM337.4 119.5L336.995 122.472L337.4 119.5ZM347.9 123.4L349.783 121.065L349.756 121.043L349.729 121.022L347.9 123.4ZM362.3 142.6L359.55 143.799L359.556 143.812L359.562 143.825L362.3 142.6ZM346.4 170.8L343.49 170.072L343.485 170.089L343.482 170.105L346.4 170.8ZM348.5 160L345.551 159.447L345.535 159.537L345.523 159.628L348.5 160ZM339.8 132.4L337.926 134.743L337.939 134.753L337.953 134.764L339.8 132.4ZM333.5 129.7L332.912 132.642L333.069 132.673L333.228 132.688L333.5 129.7ZM301.4 137.5L299.24 135.418L299.239 135.419L301.4 137.5ZM288.5 156.1L291.183 157.442L291.191 157.426L291.199 157.411L288.5 156.1ZM275.3 193.3L278.223 193.975L278.225 193.965L275.3 193.3ZM268.4 241.3L265.411 241.048L265.41 241.051L268.4 241.3ZM267.8 248.5L270.788 248.772L270.789 248.76L270.79 248.749L267.8 248.5ZM266.9 255.1L263.948 254.563L263.286 258.208L266.988 258.099L266.9 255.1ZM285.8 251.5L286.864 254.305L286.906 254.289L286.947 254.272L285.8 251.5ZM317 234.4L315.543 231.778L315.533 231.783L315.524 231.788L317 234.4ZM330.2 222.1L327.704 220.436L327.696 220.447L327.689 220.458L330.2 222.1ZM338.3 204.7L335.437 203.805L335.427 203.834L335.419 203.864L338.3 204.7ZM201.5 325L203.2 327.472L207.39 324.591L202.842 322.317L201.5 325ZM190.4 320.2L189.363 323.015L190.4 320.2ZM173.3 319.9L171.757 317.328L171.695 317.364L171.636 317.404L173.3 319.9ZM172.7 330.4L174.958 328.424L174.892 328.349L174.821 328.279L172.7 330.4ZM190.7 330.4L189.709 327.568L189.621 327.599L189.536 327.635L190.7 330.4ZM364.4 170.8C364.4 181.997 362.182 191.706 357.841 200.01L363.159 202.79C368.018 193.494 370.4 182.802 370.4 170.8H364.4ZM357.855 199.985C353.419 208.277 347.739 215.496 340.807 221.658L344.793 226.142C352.261 219.504 358.381 211.723 363.145 202.815L357.855 199.985ZM340.807 221.658C333.754 227.927 326.427 233.199 318.826 237.487L321.774 242.713C329.773 238.201 337.446 232.673 344.793 226.142L340.807 221.658ZM318.871 237.462C314.036 240.081 308.706 243.099 302.883 246.512L305.917 251.688C311.694 248.301 316.964 245.319 321.729 242.738L318.871 237.462ZM302.912 246.495C297.459 249.611 291.605 252.344 285.347 254.691L287.453 260.309C293.995 257.856 300.141 254.989 305.888 251.705L302.912 246.495ZM285.347 254.691C279.31 256.955 272.77 258.1 265.7 258.1V264.1C273.43 264.1 280.69 262.845 287.453 260.309L285.347 254.691ZM262.754 260.533C260.801 270.691 257.679 280.246 253.394 289.206L258.806 291.794C263.321 282.354 266.599 272.309 268.646 261.667L262.754 260.533ZM253.405 289.182C249.149 297.888 243.641 305.616 236.879 312.379L241.121 316.621C248.359 309.384 254.251 301.112 258.795 291.818L253.405 289.182ZM236.879 312.379C235.192 314.065 233.096 315.88 230.571 317.822L234.229 322.578C236.904 320.52 239.208 318.535 241.121 316.621L236.879 312.379ZM230.6 317.8C228.338 319.497 225.77 321.116 222.888 322.653L225.712 327.947C228.83 326.284 231.662 324.503 234.2 322.6L230.6 317.8ZM223.314 328.133C227.932 329.74 231.865 331.051 235.105 332.063L236.895 326.337C233.735 325.349 229.868 324.06 225.286 322.467L223.314 328.133ZM235.002 332.029C238.423 333.237 242.541 334.643 247.351 336.246L249.249 330.554C244.459 328.957 240.377 327.563 236.998 326.371L235.002 332.029ZM247.351 336.246C252.612 338 257.016 339.923 260.597 341.996L263.603 336.804C259.584 334.477 254.788 332.4 249.249 330.554L247.351 336.246ZM260.597 341.996C264.377 344.185 268.057 346.373 271.636 348.56L274.764 343.44C271.143 341.227 267.423 339.015 263.603 336.804L260.597 341.996ZM271.636 348.56C275.459 350.897 279.682 352.793 284.29 354.259L286.11 348.541C281.918 347.207 278.141 345.503 274.764 343.44L271.636 348.56ZM284.29 354.259C289.081 355.783 294.912 356.5 301.7 356.5V350.5C295.288 350.5 290.119 349.817 286.11 348.541L284.29 354.259ZM301.7 356.5C308.418 356.5 315.029 355.449 321.521 353.355L319.679 347.645C313.771 349.551 307.782 350.5 301.7 350.5V356.5ZM321.412 353.388C328.214 351.475 333.966 348.356 338.569 343.972L334.431 339.628C330.634 343.244 325.786 345.925 319.788 347.612L321.412 353.388ZM338.461 344.07C343.569 339.659 346.1 333.806 346.1 326.8H340.1C340.1 332.194 338.231 336.341 334.539 339.53L338.461 344.07ZM346.1 326.8C346.1 320.236 343.778 314.963 338.735 311.685L335.465 316.715C338.422 318.637 340.1 321.764 340.1 326.8H346.1ZM338.82 311.742C334.227 308.527 328.697 307 322.4 307V313C327.703 313 331.973 314.273 335.38 316.658L338.82 311.742ZM322.4 307C316.902 307 312.432 309.58 309.142 314.28L314.058 317.72C316.368 314.42 319.098 313 322.4 313V307ZM309.185 314.22C306.314 318.116 304.169 321.624 302.843 324.718L308.357 327.082C309.431 324.576 311.286 321.484 314.015 317.78L309.185 314.22ZM302.891 324.61C301.931 326.626 301.125 327.956 300.493 328.737C299.73 329.681 299.736 329.2 300.5 329.2V335.2C302.664 335.2 304.22 333.669 305.157 332.513C306.225 331.194 307.269 329.374 308.309 327.19L302.891 324.61ZM300.5 329.2C300.664 329.2 300.932 329.255 301.184 329.433C301.408 329.592 301.454 329.732 301.414 329.648C301.371 329.556 301.285 329.32 301.214 328.866C301.144 328.422 301.1 327.84 301.1 327.1H295.1C295.1 328.94 295.301 330.749 295.986 332.202C296.346 332.968 296.892 333.746 297.716 334.329C298.568 334.933 299.536 335.2 300.5 335.2V329.2ZM301.1 327.1C301.1 325.627 301.347 323.897 301.894 321.889L296.106 320.311C295.453 322.703 295.1 324.973 295.1 327.1H301.1ZM301.819 322.125C302.526 320.182 303.502 318.315 304.758 316.52L299.842 313.08C298.298 315.285 297.074 317.618 296.181 320.075L301.819 322.125ZM304.772 316.5C306.773 313.59 309.105 311.269 311.764 309.496L308.436 304.504C305.095 306.731 302.227 309.61 299.828 313.1L304.772 316.5ZM311.764 309.496C314.098 307.94 317.543 307 322.4 307V301C316.857 301 312.102 302.06 308.436 304.504L311.764 309.496ZM322.4 307C329.191 307 335.289 308.915 340.78 312.758L344.22 307.842C337.711 303.285 330.409 301 322.4 301V307ZM340.836 312.796C345.975 316.222 348.5 320.971 348.5 327.4H354.5C354.5 319.029 351.025 312.378 344.164 307.804L340.836 312.796ZM348.5 327.4C348.5 333.935 346.523 339.559 342.574 344.405L347.226 348.195C352.077 342.241 354.5 335.265 354.5 327.4H348.5ZM342.532 344.458C338.663 349.433 333.575 353.338 327.189 356.155L329.611 361.645C336.825 358.462 342.737 353.967 347.268 348.142L342.532 344.458ZM327.159 356.169C320.957 358.988 314.381 360.4 307.4 360.4V366.4C315.219 366.4 322.643 364.812 329.641 361.631L327.159 356.169ZM307.4 360.4C298.538 360.4 291.661 359.608 286.652 358.124L284.948 363.876C290.739 365.592 298.262 366.4 307.4 366.4V360.4ZM286.553 358.096C281.348 356.747 276.446 354.919 271.842 352.617L269.158 357.983C274.154 360.481 279.452 362.453 285.047 363.904L286.553 358.096ZM271.794 352.594C267.025 350.312 261.081 348.064 253.999 345.838L252.201 351.562C259.119 353.736 264.775 355.888 269.206 358.006L271.794 352.594ZM254.014 345.843C249.241 344.315 243.512 341.8 236.804 338.249L233.996 343.551C240.888 347.2 246.959 349.885 252.186 351.557L254.014 345.843ZM236.742 338.217C229.884 334.788 223.793 332.044 218.477 330L216.323 335.6C221.407 337.556 227.316 340.212 234.058 343.583L236.742 338.217ZM219.064 330.304C218.34 329.821 217.528 329.36 216.642 328.917L213.958 334.283C214.672 334.64 215.26 334.979 215.736 335.296L219.064 330.304ZM216.249 328.754C215.826 328.613 215.262 328.377 214.542 328.017L211.858 333.383C212.738 333.823 213.574 334.187 214.351 334.446L216.249 328.754ZM212.018 327.943C206.593 330.267 200.868 332.112 194.839 333.474L196.161 339.326C202.532 337.888 208.607 335.933 214.382 333.457L212.018 327.943ZM194.727 333.501C188.961 335.039 183.321 335.8 177.8 335.8V341.8C183.879 341.8 190.039 340.961 196.273 339.299L194.727 333.501ZM177.8 335.8C176.525 335.8 174.543 335.263 171.712 333.753L168.888 339.047C172.057 340.737 175.075 341.8 177.8 341.8V335.8ZM171.642 333.717C169.182 332.487 166.974 330.814 165.011 328.673L160.589 332.727C163.026 335.386 165.818 337.513 168.958 339.083L171.642 333.717ZM165.105 328.779C163.499 326.852 162.8 324.916 162.8 322.9H156.8C156.8 326.484 158.101 329.748 160.495 332.621L165.105 328.779ZM162.8 322.9C162.8 321.845 163.226 320.281 164.491 318.112L159.309 315.088C157.774 317.719 156.8 320.355 156.8 322.9H162.8ZM164.455 318.172C165.893 315.836 167.577 313.895 169.5 312.322L165.7 307.678C163.223 309.705 161.107 312.164 159.345 315.028L164.455 318.172ZM169.4 312.4C171.467 310.85 173.148 310.3 174.5 310.3V304.3C171.452 304.3 168.533 305.55 165.8 307.6L169.4 312.4ZM174.5 310.3C178.61 310.3 183.735 311.38 189.947 313.709L192.053 308.091C185.465 305.62 179.59 304.3 174.5 304.3V310.3ZM189.975 313.719C196.48 316.085 202.473 318.64 207.958 321.383L210.642 316.017C204.927 313.16 198.72 310.515 192.025 308.081L189.975 313.719ZM211.421 320.821C213.421 318.821 215.321 316.921 217.121 315.121L212.879 310.879C211.079 312.679 209.179 314.579 207.179 316.579L211.421 320.821ZM217.23 315.007C218.997 313.044 220.761 311.182 222.521 309.421L218.279 305.179C216.439 307.018 214.603 308.956 212.77 310.993L217.23 315.007ZM222.521 309.421C228.761 303.182 234.04 295.822 238.37 287.368L233.03 284.632C228.96 292.578 224.039 299.418 218.279 305.179L222.521 309.421ZM238.37 287.368C242.632 279.046 246.384 270.325 249.627 261.205L243.973 259.195C240.816 268.075 237.168 276.554 233.03 284.632L238.37 287.368ZM247.06 257.211C238.015 256.425 229.171 254.95 220.528 252.79L219.072 258.61C228.029 260.85 237.185 262.375 246.54 263.189L247.06 257.211ZM220.589 252.806C212.019 250.468 204.265 247.265 197.312 243.209L194.288 248.391C201.735 252.735 209.981 256.132 219.011 258.594L220.589 252.806ZM197.343 243.228C190.672 239.225 185.289 234.301 181.147 228.464L176.253 231.936C180.911 238.499 186.928 243.975 194.257 248.372L197.343 243.228ZM181.208 228.554C177.375 222.713 175.4 215.705 175.4 207.4H169.4C169.4 216.695 171.625 224.887 176.192 231.846L181.208 228.554ZM175.4 207.4C175.4 198.539 177.655 190.261 182.189 182.516L177.011 179.484C171.945 188.139 169.4 197.461 169.4 207.4H175.4ZM182.178 182.534C186.949 174.519 193.13 168.059 200.735 163.115L197.465 158.085C189.07 163.541 182.251 170.681 177.022 179.466L182.178 182.534ZM200.735 163.115C208.267 158.219 216.303 155.8 224.9 155.8V149.8C215.097 149.8 205.933 152.581 197.465 158.085L200.735 163.115ZM224.9 155.8C235.989 155.8 244.501 157.752 250.679 161.386L253.721 156.214C246.299 151.848 236.611 149.8 224.9 149.8V155.8ZM250.679 161.386C256.189 164.627 259.4 171.043 259.4 181.9H265.4C265.4 169.957 261.811 160.973 253.721 156.214L250.679 161.386ZM259.4 181.9C259.4 186.633 257.919 191.371 254.789 196.158L259.811 199.442C263.481 193.829 265.4 187.967 265.4 181.9H259.4ZM254.773 196.183C251.705 200.976 248.683 204.197 245.77 206.081L249.03 211.119C252.917 208.603 256.495 204.624 259.827 199.417L254.773 196.183ZM246.058 205.917C245.88 206.006 245.727 206.079 245.599 206.139C245.469 206.198 245.375 206.239 245.311 206.265C245.24 206.293 245.237 206.291 245.282 206.278C245.306 206.271 245.366 206.255 245.452 206.239C245.497 206.231 245.556 206.222 245.627 206.214C245.697 206.207 245.79 206.2 245.9 206.2V212.2C246.369 212.2 246.756 212.097 246.93 212.047C247.151 211.984 247.36 211.907 247.539 211.835C247.9 211.691 248.309 211.5 248.742 211.283L246.058 205.917ZM245.9 206.2C245.72 206.2 245.693 206.174 245.761 206.199C245.797 206.213 245.853 206.238 245.919 206.282C245.985 206.326 246.049 206.381 246.105 206.443C246.221 206.572 246.248 206.67 246.242 206.65C246.233 206.62 246.2 206.485 246.2 206.2H240.2C240.2 207.589 240.506 209.191 241.645 210.457C242.839 211.783 244.451 212.2 245.9 212.2V206.2ZM246.2 206.2C246.2 205.93 246.245 205.836 246.241 205.843C246.24 205.847 246.232 205.862 246.218 205.88C246.203 205.898 246.194 205.905 246.2 205.9L242.6 201.1C240.89 202.383 240.2 204.268 240.2 206.2H246.2ZM246.3 205.822C248.811 203.767 251.496 200.609 254.358 196.52L249.442 193.08C246.704 196.991 244.389 199.633 242.5 201.178L246.3 205.822ZM254.3 196.6C257.654 192.129 259.4 187.206 259.4 181.9H253.4C253.4 185.794 252.146 189.471 249.5 193L254.3 196.6ZM259.4 181.9C259.4 171.935 256.287 164.364 249.078 160.635L246.322 165.965C250.713 168.236 253.4 173.065 253.4 181.9H259.4ZM249.078 160.635C242.707 157.34 234.583 155.8 224.9 155.8V161.8C234.017 161.8 241.093 163.26 246.322 165.965L249.078 160.635ZM224.9 155.8C216.07 155.8 208.453 158.403 202.248 163.722L206.152 168.278C211.147 163.997 217.33 161.8 224.9 161.8V155.8ZM202.248 163.722C196.222 168.887 191.744 175.531 188.785 183.563L194.415 185.637C197.056 178.469 200.978 172.713 206.152 168.278L202.248 163.722ZM188.794 183.538C185.855 191.306 184.4 199.669 184.4 208.6H190.4C190.4 200.331 191.745 192.694 194.406 185.662L188.794 183.538ZM184.4 208.6C184.4 219.767 187.47 229.044 193.877 236.115L198.323 232.085C193.13 226.356 190.4 218.633 190.4 208.6H184.4ZM193.877 236.115C200.067 242.945 208.124 248.001 217.933 251.34L219.867 245.66C210.876 242.599 203.733 238.055 198.323 232.085L193.877 236.115ZM217.988 251.358C227.608 254.428 237.821 256.468 248.618 257.487L249.182 251.513C238.779 250.532 228.992 248.572 219.812 245.642L217.988 251.358ZM251.732 255.491C253.141 251.464 254.451 247.535 255.661 243.703L249.939 241.897C248.749 245.665 247.459 249.536 246.068 253.509L251.732 255.491ZM255.661 243.703C256.861 239.903 258.061 236.103 259.261 232.303L253.539 230.497C252.339 234.297 251.139 238.097 249.939 241.897L255.661 243.703ZM259.237 232.374C263.859 218.911 267.979 205.446 271.597 191.978L265.803 190.422C262.221 203.754 258.141 217.089 253.563 230.426L259.237 232.374ZM271.589 192.007C275.342 178.575 280.076 166.156 285.783 154.742L280.417 152.058C274.524 163.844 269.658 176.625 265.811 190.393L271.589 192.007ZM285.803 154.701C288.344 149.423 291.28 144.237 294.611 139.142L289.589 135.858C286.12 141.163 283.056 146.577 280.397 152.099L285.803 154.701ZM294.596 139.164C298.007 134.047 302.06 129.813 306.753 126.435L303.247 121.565C297.94 125.387 293.393 130.153 289.604 135.836L294.596 139.164ZM306.708 126.467C311.312 123.279 317.085 121.6 324.2 121.6V115.6C316.115 115.6 309.088 117.521 303.292 121.533L306.708 126.467ZM324.2 121.6C328.463 121.6 332.728 121.891 336.995 122.472L337.805 116.528C333.272 115.909 328.737 115.6 324.2 115.6V121.6ZM336.995 122.472C341.053 123.026 344.007 124.19 346.071 125.778L349.729 121.022C346.593 118.61 342.547 117.174 337.805 116.528L336.995 122.472ZM346.017 125.735C351.815 130.411 356.33 136.411 359.55 143.799L365.05 141.401C361.47 133.189 356.385 126.389 349.783 121.065L346.017 125.735ZM359.562 143.825C362.741 150.931 364.4 159.884 364.4 170.8H370.4C370.4 159.316 368.659 149.469 365.038 141.375L359.562 143.825ZM349.31 171.528C350.332 167.441 351.058 163.719 351.477 160.372L345.523 159.628C345.142 162.681 344.468 166.159 343.49 170.072L349.31 171.528ZM351.449 160.553C352.075 157.214 352.4 154.125 352.4 151.3H346.4C346.4 153.675 346.125 156.386 345.551 159.447L351.449 160.553ZM352.4 151.3C352.4 142.706 348.717 135.559 341.647 130.036L337.953 134.764C343.683 139.241 346.4 144.694 346.4 151.3H352.4ZM341.674 130.057C339.29 128.15 336.646 126.974 333.772 126.712L333.228 132.688C334.754 132.826 336.31 133.45 337.926 134.743L341.674 130.057ZM334.088 126.758C331.802 126.301 328.772 126.1 325.1 126.1V132.1C328.628 132.1 331.198 132.299 332.912 132.642L334.088 126.758ZM325.1 126.1C314.17 126.1 305.377 129.054 299.24 135.418L303.56 139.582C308.223 134.746 315.23 132.1 325.1 132.1V126.1ZM299.239 135.419C293.812 141.055 289.334 147.517 285.801 154.789L291.199 157.411C294.466 150.683 298.588 144.745 303.561 139.581L299.239 135.419ZM285.817 154.758C279.905 166.583 275.426 179.211 272.375 192.635L278.225 193.965C281.174 180.989 285.495 168.817 291.183 157.442L285.817 154.758ZM272.377 192.625C269.334 205.81 267.018 221.961 265.411 241.048L271.389 241.552C272.982 222.639 275.266 206.79 278.223 193.975L272.377 192.625ZM265.41 241.051C265.21 243.451 265.01 245.851 264.81 248.251L270.79 248.749C270.99 246.349 271.19 243.949 271.39 241.549L265.41 241.051ZM264.812 248.228C264.62 250.338 264.333 252.45 263.948 254.563L269.852 255.637C270.267 253.35 270.58 251.062 270.788 248.772L264.812 248.228ZM266.988 258.099C274.09 257.89 280.723 256.634 286.864 254.305L284.736 248.695C279.277 250.766 273.31 251.91 266.812 252.101L266.988 258.099ZM286.947 254.272C292.89 251.813 298.533 248.941 303.872 245.655L300.728 240.545C295.667 243.659 290.31 246.387 284.653 248.728L286.947 254.272ZM303.872 245.655C309.045 242.472 313.913 239.591 318.476 237.012L315.524 231.788C310.887 234.409 305.955 237.328 300.728 240.545L303.872 245.655ZM318.457 237.022C324.285 233.785 329.046 229.347 332.711 223.742L327.689 220.458C324.554 225.253 320.515 229.015 315.543 231.778L318.457 237.022ZM332.696 223.764C336.465 218.111 339.295 212.032 341.181 205.536L335.419 203.864C333.705 209.768 331.135 215.289 327.704 220.436L332.696 223.764ZM341.163 205.595C343.192 199.104 344.819 192.801 346.042 186.688L340.158 185.512C338.981 191.399 337.408 197.496 335.437 203.805L341.163 205.595ZM346.042 186.688C347.237 180.711 348.329 175.648 349.318 171.495L343.482 170.105C342.471 174.352 341.363 179.489 340.158 185.512L346.042 186.688ZM202.842 322.317C199.142 320.467 195.34 318.823 191.437 317.385L189.363 323.015C193.06 324.377 196.658 325.933 200.158 327.683L202.842 322.317ZM191.437 317.385C187.367 315.885 183.414 315.1 179.6 315.1V321.1C182.586 321.1 185.833 321.715 189.363 323.015L191.437 317.385ZM179.6 315.1C176.823 315.1 174.194 315.865 171.757 317.328L174.843 322.472C176.406 321.535 177.977 321.1 179.6 321.1V315.1ZM171.636 317.404C169.195 319.031 167.6 321.385 167.6 324.4H173.6C173.6 323.815 173.805 323.169 174.964 322.396L171.636 317.404ZM167.6 324.4C167.6 327.537 168.456 330.399 170.579 332.521L174.821 328.279C174.144 327.601 173.6 326.463 173.6 324.4H167.6ZM170.442 332.376C172.371 334.58 174.875 335.8 177.8 335.8V329.8C176.725 329.8 175.829 329.42 174.958 328.424L170.442 332.376ZM177.8 335.8C182.935 335.8 187.64 334.943 191.864 333.165L189.536 327.635C186.16 329.057 182.265 329.8 177.8 329.8V335.8ZM191.691 333.232C195.919 331.752 199.761 329.836 203.2 327.472L199.8 322.528C196.839 324.564 193.481 326.248 189.709 327.568L191.691 333.232Z" fill="#413246" mask="url(#path-2-outside-1_1_15)"/>
</g>
<defs>
<filter id="filter0_d_1_15" x="155.8" y="118.6" width="215.6" height="252.8" filterUnits="userSpaceOnUse" color-interpolation-filters="sRGB">
<feFlood flood-opacity="0" result="BackgroundImageFix"/>
<feColorMatrix in="SourceAlpha" type="matrix" values="0 0 0 0 0 0 0 0 0 0 0 0 0 0 0 0 0 0 127 0" result="hardAlpha"/>
<feOffset dy="4"/>
<feGaussianBlur stdDeviation="2"/>
<feComposite in2="hardAlpha" operator="out"/>
<feColorMatrix type="matrix" values="0 0 0 0 0 0 0 0 0 0 0 0 0 0 0 0 0 0 0.25 0"/>
<feBlend mode="normal" in2="BackgroundImageFix" result="effect1_dropShadow_1_15"/>
<feBlend mode="normal" in="SourceGraphic" in2="effect1_dropShadow_1_15" result="shape"/>
</filter>
</defs>
</svg>
